<?xml version="1.0" encoding="utf-8" standalone="no"?>
<!DOCTYPE svg PUBLIC "-//W3C//DTD SVG 1.1//EN"
  "http://www.w3.org/Graphics/SVG/1.1/DTD/svg11.dtd">
<!-- Created with matplotlib (http://matplotlib.org/) -->
<svg height="720pt" version="1.1" viewBox="0 0 720 720" width="720pt" xmlns="http://www.w3.org/2000/svg" xmlns:xlink="http://www.w3.org/1999/xlink">
 <defs>
  <style type="text/css">
*{stroke-linecap:butt;stroke-linejoin:round;stroke-miterlimit:100000;}
  </style>
 </defs>
 <g id="figure_1">
  <g id="patch_1">
   <path d="M 0 720 
L 720 720 
L 720 0 
L 0 0 
z
" style="fill:#ffffff;"/>
  </g>
  <g id="axes_1">
   <g id="patch_2">
    <path d="M 90 630 
L 648 630 
L 648 72 
L 90 72 
z
" style="fill:#eaeaf2;"/>
   </g>
   <g id="matplotlib.axis_1">
    <g id="xtick_1">
     <g id="line2d_1">
      <path clip-path="url(#p22a976f292)" d="M 90 630 
L 90 72 
" style="fill:none;stroke:#ffffff;stroke-linecap:round;"/>
     </g>
     <g id="line2d_2">
      <defs>
       <path d="M 0 0 
L 0 0 
" id="mcd86d69675" style="stroke:#262626;"/>
      </defs>
      <g>
       <use style="fill:#262626;stroke:#262626;" x="90.0" xlink:href="#mcd86d69675" y="630.0"/>
      </g>
     </g>
     <g id="line2d_3">
      <g>
       <use style="fill:#262626;stroke:#262626;" x="90.0" xlink:href="#mcd86d69675" y="72.0"/>
      </g>
     </g>
     <g id="text_1">
      <!-- −10 -->
      <defs>
       <path d="M 4.9375 29.6875 
L 4.9375 36.8125 
L 53.515625 36.8125 
L 53.515625 29.6875 
z
" id="LiberationSans-2212"/>
       <path d="M 7.625 0 
L 7.625 7.46875 
L 25.140625 7.46875 
L 25.140625 60.40625 
L 9.625 49.3125 
L 9.625 57.625 
L 25.875 68.796875 
L 33.984375 68.796875 
L 33.984375 7.46875 
L 50.734375 7.46875 
L 50.734375 0 
z
" id="LiberationSans-31"/>
       <path d="M 51.703125 34.421875 
Q 51.703125 24.515625 49.828125 17.75 
Q 47.953125 10.984375 44.703125 6.8125 
Q 41.453125 2.640625 37.0625 0.828125 
Q 32.671875 -0.984375 27.6875 -0.984375 
Q 22.65625 -0.984375 18.3125 0.828125 
Q 13.96875 2.640625 10.765625 6.78125 
Q 7.5625 10.9375 5.734375 17.703125 
Q 3.90625 24.46875 3.90625 34.421875 
Q 3.90625 44.828125 5.734375 51.640625 
Q 7.5625 58.453125 10.78125 62.5 
Q 14.015625 66.546875 18.40625 68.1875 
Q 22.796875 69.828125 27.984375 69.828125 
Q 32.90625 69.828125 37.21875 68.1875 
Q 41.546875 66.546875 44.765625 62.5 
Q 48 58.453125 49.84375 51.640625 
Q 51.703125 44.828125 51.703125 34.421875 
M 42.78125 34.421875 
Q 42.78125 42.625 41.796875 48.0625 
Q 40.828125 53.515625 38.921875 56.765625 
Q 37.015625 60.015625 34.25 61.359375 
Q 31.5 62.703125 27.984375 62.703125 
Q 24.265625 62.703125 21.4375 61.328125 
Q 18.609375 59.96875 16.671875 56.71875 
Q 14.75 53.46875 13.765625 48.015625 
Q 12.796875 42.578125 12.796875 34.421875 
Q 12.796875 26.515625 13.796875 21.09375 
Q 14.796875 15.671875 16.71875 12.375 
Q 18.65625 9.078125 21.4375 7.640625 
Q 24.21875 6.203125 27.78125 6.203125 
Q 31.25 6.203125 34.03125 7.640625 
Q 36.8125 9.078125 38.734375 12.375 
Q 40.671875 15.671875 41.71875 21.09375 
Q 42.78125 26.515625 42.78125 34.421875 
" id="LiberationSans-30"/>
      </defs>
      <g style="fill:#262626;" transform="translate(81.51875 644.246875)scale(0.1 -0.1)">
       <use xlink:href="#LiberationSans-2212"/>
       <use x="58.3984375" xlink:href="#LiberationSans-31"/>
       <use x="114.013671875" xlink:href="#LiberationSans-30"/>
      </g>
     </g>
    </g>
    <g id="xtick_2">
     <g id="line2d_4">
      <path clip-path="url(#p22a976f292)" d="M 229.5 630 
L 229.5 72 
" style="fill:none;stroke:#ffffff;stroke-linecap:round;"/>
     </g>
     <g id="line2d_5">
      <g>
       <use style="fill:#262626;stroke:#262626;" x="229.5" xlink:href="#mcd86d69675" y="630.0"/>
      </g>
     </g>
     <g id="line2d_6">
      <g>
       <use style="fill:#262626;stroke:#262626;" x="229.5" xlink:href="#mcd86d69675" y="72.0"/>
      </g>
     </g>
     <g id="text_2">
      <!-- −5 -->
      <defs>
       <path d="M 51.421875 22.40625 
Q 51.421875 17.234375 49.859375 12.9375 
Q 48.296875 8.640625 45.21875 5.53125 
Q 42.140625 2.4375 37.578125 0.71875 
Q 33.015625 -0.984375 27 -0.984375 
Q 21.578125 -0.984375 17.546875 0.28125 
Q 13.53125 1.5625 10.734375 3.78125 
Q 7.953125 6 6.3125 8.984375 
Q 4.6875 11.96875 4 15.375 
L 12.890625 16.40625 
Q 13.421875 14.453125 14.390625 12.625 
Q 15.375 10.796875 17.0625 9.34375 
Q 18.75 7.90625 21.21875 7.046875 
Q 23.6875 6.203125 27.203125 6.203125 
Q 30.609375 6.203125 33.390625 7.25 
Q 36.1875 8.296875 38.15625 10.34375 
Q 40.140625 12.40625 41.203125 15.375 
Q 42.28125 18.359375 42.28125 22.21875 
Q 42.28125 25.390625 41.25 28.046875 
Q 40.234375 30.71875 38.328125 32.640625 
Q 36.421875 34.578125 33.65625 35.640625 
Q 30.90625 36.71875 27.390625 36.71875 
Q 25.203125 36.71875 23.34375 36.328125 
Q 21.484375 35.9375 19.890625 35.25 
Q 18.3125 34.578125 17.015625 33.671875 
Q 15.71875 32.765625 14.59375 31.78125 
L 6 31.78125 
L 8.296875 68.796875 
L 47.40625 68.796875 
L 47.40625 61.328125 
L 16.3125 61.328125 
L 14.984375 39.5 
Q 17.328125 41.3125 20.84375 42.59375 
Q 24.359375 43.890625 29.203125 43.890625 
Q 34.328125 43.890625 38.421875 42.328125 
Q 42.53125 40.765625 45.40625 37.90625 
Q 48.296875 35.0625 49.859375 31.109375 
Q 51.421875 27.15625 51.421875 22.40625 
" id="LiberationSans-35"/>
      </defs>
      <g style="fill:#262626;" transform="translate(223.79921875 644.246875)scale(0.1 -0.1)">
       <use xlink:href="#LiberationSans-2212"/>
       <use x="58.3984375" xlink:href="#LiberationSans-35"/>
      </g>
     </g>
    </g>
    <g id="xtick_3">
     <g id="line2d_7">
      <path clip-path="url(#p22a976f292)" d="M 369 630 
L 369 72 
" style="fill:none;stroke:#ffffff;stroke-linecap:round;"/>
     </g>
     <g id="line2d_8">
      <g>
       <use style="fill:#262626;stroke:#262626;" x="369.0" xlink:href="#mcd86d69675" y="630.0"/>
      </g>
     </g>
     <g id="line2d_9">
      <g>
       <use style="fill:#262626;stroke:#262626;" x="369.0" xlink:href="#mcd86d69675" y="72.0"/>
      </g>
     </g>
     <g id="text_3">
      <!-- 0 -->
      <g style="fill:#262626;" transform="translate(366.21953125 644.246875)scale(0.1 -0.1)">
       <use xlink:href="#LiberationSans-30"/>
      </g>
     </g>
    </g>
    <g id="xtick_4">
     <g id="line2d_10">
      <path clip-path="url(#p22a976f292)" d="M 508.5 630 
L 508.5 72 
" style="fill:none;stroke:#ffffff;stroke-linecap:round;"/>
     </g>
     <g id="line2d_11">
      <g>
       <use style="fill:#262626;stroke:#262626;" x="508.5" xlink:href="#mcd86d69675" y="630.0"/>
      </g>
     </g>
     <g id="line2d_12">
      <g>
       <use style="fill:#262626;stroke:#262626;" x="508.5" xlink:href="#mcd86d69675" y="72.0"/>
      </g>
     </g>
     <g id="text_4">
      <!-- 5 -->
      <g style="fill:#262626;" transform="translate(505.71953125 644.246875)scale(0.1 -0.1)">
       <use xlink:href="#LiberationSans-35"/>
      </g>
     </g>
    </g>
    <g id="xtick_5">
     <g id="line2d_13">
      <path clip-path="url(#p22a976f292)" d="M 648 630 
L 648 72 
" style="fill:none;stroke:#ffffff;stroke-linecap:round;"/>
     </g>
     <g id="line2d_14">
      <g>
       <use style="fill:#262626;stroke:#262626;" x="648.0" xlink:href="#mcd86d69675" y="630.0"/>
      </g>
     </g>
     <g id="line2d_15">
      <g>
       <use style="fill:#262626;stroke:#262626;" x="648.0" xlink:href="#mcd86d69675" y="72.0"/>
      </g>
     </g>
     <g id="text_5">
      <!-- 10 -->
      <g style="fill:#262626;" transform="translate(642.4390625 644.246875)scale(0.1 -0.1)">
       <use xlink:href="#LiberationSans-31"/>
       <use x="55.615234375" xlink:href="#LiberationSans-30"/>
      </g>
     </g>
    </g>
    <g id="text_6">
     <!-- $x_1$ -->
     <defs>
      <path d="M 7.8125 2.875 
Q 9.578125 1.515625 12.796875 1.515625 
Q 15.921875 1.515625 18.3125 4.515625 
Q 20.703125 7.515625 21.578125 11.078125 
L 26.125 28.8125 
Q 27.203125 33.640625 27.203125 35.40625 
Q 27.203125 37.890625 25.8125 39.75 
Q 24.421875 41.609375 21.921875 41.609375 
Q 18.75 41.609375 15.96875 39.625 
Q 13.1875 37.640625 11.28125 34.59375 
Q 9.375 31.546875 8.59375 28.421875 
Q 8.40625 27.78125 7.8125 27.78125 
L 6.59375 27.78125 
Q 5.8125 27.78125 5.8125 28.71875 
L 5.8125 29 
Q 6.78125 32.71875 9.125 36.25 
Q 11.46875 39.796875 14.859375 41.984375 
Q 18.265625 44.1875 22.125 44.1875 
Q 25.78125 44.1875 28.734375 42.234375 
Q 31.6875 40.28125 32.90625 36.921875 
Q 34.625 39.984375 37.28125 42.078125 
Q 39.9375 44.1875 43.109375 44.1875 
Q 45.265625 44.1875 47.5 43.421875 
Q 49.75 42.671875 51.171875 41.109375 
Q 52.59375 39.546875 52.59375 37.203125 
Q 52.59375 34.671875 50.953125 32.828125 
Q 49.3125 31 46.78125 31 
Q 45.171875 31 44.09375 32.03125 
Q 43.015625 33.0625 43.015625 34.625 
Q 43.015625 36.71875 44.453125 38.296875 
Q 45.90625 39.890625 47.90625 40.1875 
Q 46.09375 41.609375 42.921875 41.609375 
Q 39.703125 41.609375 37.328125 38.625 
Q 34.96875 35.640625 33.984375 31.984375 
L 29.59375 14.3125 
Q 28.515625 10.296875 28.515625 7.71875 
Q 28.515625 5.171875 29.953125 3.34375 
Q 31.390625 1.515625 33.796875 1.515625 
Q 38.484375 1.515625 42.15625 5.640625 
Q 45.84375 9.765625 47.015625 14.703125 
Q 47.21875 15.28125 47.796875 15.28125 
L 49.03125 15.28125 
Q 49.421875 15.28125 49.65625 15.015625 
Q 49.90625 14.75 49.90625 14.40625 
Q 49.90625 14.3125 49.8125 14.109375 
Q 48.390625 8.15625 43.84375 3.515625 
Q 39.3125 -1.125 33.59375 -1.125 
Q 29.9375 -1.125 26.984375 0.84375 
Q 24.03125 2.828125 22.796875 6.203125 
Q 21.234375 3.265625 18.46875 1.0625 
Q 15.71875 -1.125 12.59375 -1.125 
Q 10.453125 -1.125 8.171875 -0.359375 
Q 5.90625 0.390625 4.484375 1.953125 
Q 3.078125 3.515625 3.078125 5.90625 
Q 3.078125 8.25 4.703125 10.171875 
Q 6.34375 12.109375 8.796875 12.109375 
Q 10.453125 12.109375 11.578125 11.109375 
Q 12.703125 10.109375 12.703125 8.5 
Q 12.703125 6.390625 11.296875 4.828125 
Q 9.90625 3.265625 7.8125 2.875 
" id="Cmmi10-78"/>
      <path d="M 9.28125 0 
L 9.28125 3.515625 
Q 21.78125 3.515625 21.78125 6.6875 
L 21.78125 59.1875 
Q 16.609375 56.6875 8.6875 56.6875 
L 8.6875 60.203125 
Q 20.953125 60.203125 27.203125 66.609375 
L 28.609375 66.609375 
Q 28.953125 66.609375 29.265625 66.328125 
Q 29.59375 66.0625 29.59375 65.71875 
L 29.59375 6.6875 
Q 29.59375 3.515625 42.09375 3.515625 
L 42.09375 0 
z
" id="Cmr10-31"/>
     </defs>
     <g style="fill:#262626;" transform="translate(358.11 667.265)scale(0.22 -0.22)">
      <use transform="translate(0.0 0.8125)" xlink:href="#Cmmi10-78"/>
      <use transform="translate(57.080078125 -16.19375)scale(0.7)" xlink:href="#Cmr10-31"/>
     </g>
    </g>
   </g>
   <g id="matplotlib.axis_2">
    <g id="ytick_1">
     <g id="line2d_16">
      <path clip-path="url(#p22a976f292)" d="M 90 630 
L 648 630 
" style="fill:none;stroke:#ffffff;stroke-linecap:round;"/>
     </g>
     <g id="line2d_17">
      <g>
       <use style="fill:#262626;stroke:#262626;" x="90.0" xlink:href="#mcd86d69675" y="630.0"/>
      </g>
     </g>
     <g id="line2d_18">
      <g>
       <use style="fill:#262626;stroke:#262626;" x="648.0" xlink:href="#mcd86d69675" y="630.0"/>
      </g>
     </g>
     <g id="text_7">
      <!-- −10 -->
      <g style="fill:#262626;" transform="translate(66.0375 632.5859375)scale(0.1 -0.1)">
       <use xlink:href="#LiberationSans-2212"/>
       <use x="58.3984375" xlink:href="#LiberationSans-31"/>
       <use x="114.013671875" xlink:href="#LiberationSans-30"/>
      </g>
     </g>
    </g>
    <g id="ytick_2">
     <g id="line2d_19">
      <path clip-path="url(#p22a976f292)" d="M 90 490.5 
L 648 490.5 
" style="fill:none;stroke:#ffffff;stroke-linecap:round;"/>
     </g>
     <g id="line2d_20">
      <g>
       <use style="fill:#262626;stroke:#262626;" x="90.0" xlink:href="#mcd86d69675" y="490.5"/>
      </g>
     </g>
     <g id="line2d_21">
      <g>
       <use style="fill:#262626;stroke:#262626;" x="648.0" xlink:href="#mcd86d69675" y="490.5"/>
      </g>
     </g>
     <g id="text_8">
      <!-- −5 -->
      <g style="fill:#262626;" transform="translate(71.5984375 493.0859375)scale(0.1 -0.1)">
       <use xlink:href="#LiberationSans-2212"/>
       <use x="58.3984375" xlink:href="#LiberationSans-35"/>
      </g>
     </g>
    </g>
    <g id="ytick_3">
     <g id="line2d_22">
      <path clip-path="url(#p22a976f292)" d="M 90 351 
L 648 351 
" style="fill:none;stroke:#ffffff;stroke-linecap:round;"/>
     </g>
     <g id="line2d_23">
      <g>
       <use style="fill:#262626;stroke:#262626;" x="90.0" xlink:href="#mcd86d69675" y="351.0"/>
      </g>
     </g>
     <g id="line2d_24">
      <g>
       <use style="fill:#262626;stroke:#262626;" x="648.0" xlink:href="#mcd86d69675" y="351.0"/>
      </g>
     </g>
     <g id="text_9">
      <!-- 0 -->
      <g style="fill:#262626;" transform="translate(77.4390625 353.5859375)scale(0.1 -0.1)">
       <use xlink:href="#LiberationSans-30"/>
      </g>
     </g>
    </g>
    <g id="ytick_4">
     <g id="line2d_25">
      <path clip-path="url(#p22a976f292)" d="M 90 211.5 
L 648 211.5 
" style="fill:none;stroke:#ffffff;stroke-linecap:round;"/>
     </g>
     <g id="line2d_26">
      <g>
       <use style="fill:#262626;stroke:#262626;" x="90.0" xlink:href="#mcd86d69675" y="211.5"/>
      </g>
     </g>
     <g id="line2d_27">
      <g>
       <use style="fill:#262626;stroke:#262626;" x="648.0" xlink:href="#mcd86d69675" y="211.5"/>
      </g>
     </g>
     <g id="text_10">
      <!-- 5 -->
      <g style="fill:#262626;" transform="translate(77.4390625 214.0859375)scale(0.1 -0.1)">
       <use xlink:href="#LiberationSans-35"/>
      </g>
     </g>
    </g>
    <g id="ytick_5">
     <g id="line2d_28">
      <path clip-path="url(#p22a976f292)" d="M 90 72 
L 648 72 
" style="fill:none;stroke:#ffffff;stroke-linecap:round;"/>
     </g>
     <g id="line2d_29">
      <g>
       <use style="fill:#262626;stroke:#262626;" x="90.0" xlink:href="#mcd86d69675" y="72.0"/>
      </g>
     </g>
     <g id="line2d_30">
      <g>
       <use style="fill:#262626;stroke:#262626;" x="648.0" xlink:href="#mcd86d69675" y="72.0"/>
      </g>
     </g>
     <g id="text_11">
      <!-- 10 -->
      <g style="fill:#262626;" transform="translate(71.878125 74.5859375)scale(0.1 -0.1)">
       <use xlink:href="#LiberationSans-31"/>
       <use x="55.615234375" xlink:href="#LiberationSans-30"/>
      </g>
     </g>
    </g>
    <g id="text_12">
     <!-- $x_2$ -->
     <defs>
      <path d="M 4.984375 0 
L 4.984375 2.6875 
Q 4.984375 2.9375 5.171875 3.21875 
L 20.703125 20.40625 
Q 24.21875 24.21875 26.40625 26.796875 
Q 28.609375 29.390625 30.75 32.765625 
Q 32.90625 36.140625 34.15625 39.625 
Q 35.40625 43.109375 35.40625 47.015625 
Q 35.40625 51.125 33.890625 54.859375 
Q 32.375 58.59375 29.375 60.84375 
Q 26.375 63.09375 22.125 63.09375 
Q 17.78125 63.09375 14.3125 60.46875 
Q 10.84375 57.859375 9.421875 53.71875 
Q 9.8125 53.8125 10.5 53.8125 
Q 12.75 53.8125 14.328125 52.296875 
Q 15.921875 50.78125 15.921875 48.390625 
Q 15.921875 46.09375 14.328125 44.5 
Q 12.75 42.921875 10.5 42.921875 
Q 8.15625 42.921875 6.5625 44.546875 
Q 4.984375 46.1875 4.984375 48.390625 
Q 4.984375 52.15625 6.390625 55.4375 
Q 7.8125 58.734375 10.46875 61.296875 
Q 13.140625 63.875 16.484375 65.234375 
Q 19.828125 66.609375 23.578125 66.609375 
Q 29.296875 66.609375 34.21875 64.1875 
Q 39.15625 61.765625 42.03125 57.34375 
Q 44.921875 52.9375 44.921875 47.015625 
Q 44.921875 42.671875 43.015625 38.765625 
Q 41.109375 34.859375 38.125 31.65625 
Q 35.15625 28.46875 30.515625 24.40625 
Q 25.875 20.359375 24.421875 19 
L 13.09375 8.109375 
L 22.703125 8.109375 
Q 29.78125 8.109375 34.546875 8.21875 
Q 39.3125 8.34375 39.59375 8.59375 
Q 40.765625 9.859375 42 17.828125 
L 44.921875 17.828125 
L 42.09375 0 
z
" id="Cmr10-32"/>
     </defs>
     <g style="fill:#262626;" transform="translate(56.4725 361.89)rotate(-90.0)scale(0.22 -0.22)">
      <use transform="translate(0.0 0.8125)" xlink:href="#Cmmi10-78"/>
      <use transform="translate(57.080078125 -16.19375)scale(0.7)" xlink:href="#Cmr10-32"/>
     </g>
    </g>
   </g>
   <g id="PathCollection_1">
    <defs>
     <path d="M 0 5 
C 1.326016 5 2.597899 4.473168 3.535534 3.535534 
C 4.473168 2.597899 5 1.326016 5 0 
C 5 -1.326016 4.473168 -2.597899 3.535534 -3.535534 
C 2.597899 -4.473168 1.326016 -5 0 -5 
C -1.326016 -5 -2.597899 -4.473168 -3.535534 -3.535534 
C -4.473168 -2.597899 -5 -1.326016 -5 0 
C -5 1.326016 -4.473168 2.597899 -3.535534 3.535534 
C -2.597899 4.473168 -1.326016 5 0 5 
z
" id="m2cacc5b3b2" style="stroke:#000000;stroke-width:0.3;"/>
    </defs>
    <g clip-path="url(#p22a976f292)">
     <use style="fill:#ffffff;stroke:#000000;stroke-width:0.3;" x="282.524225912" xlink:href="#m2cacc5b3b2" y="442.847507506"/>
     <use style="fill:#ffffff;stroke:#000000;stroke-width:0.3;" x="343.226145315" xlink:href="#m2cacc5b3b2" y="479.507550843"/>
     <use style="fill:#ffffff;stroke:#000000;stroke-width:0.3;" x="306.51160008" xlink:href="#m2cacc5b3b2" y="416.674708713"/>
     <use style="fill:#ffffff;stroke:#000000;stroke-width:0.3;" x="369.428311334" xlink:href="#m2cacc5b3b2" y="436.907120056"/>
     <use style="fill:#ffffff;stroke:#000000;stroke-width:0.3;" x="300.880778307" xlink:href="#m2cacc5b3b2" y="453.453315917"/>
     <use style="fill:#ffffff;stroke:#000000;stroke-width:0.3;" x="349.25490778" xlink:href="#m2cacc5b3b2" y="466.578730582"/>
     <use style="fill:#ffffff;stroke:#000000;stroke-width:0.3;" x="201.6" xlink:href="#m2cacc5b3b2" y="351.0"/>
     <use style="fill:#ffffff;stroke:#000000;stroke-width:0.3;" x="421.015029623" xlink:href="#m2cacc5b3b2" y="312.561837827"/>
     <use style="fill:#ffffff;stroke:#000000;stroke-width:0.3;" x="510.593701401" xlink:href="#m2cacc5b3b2" y="297.794847101"/>
     <use style="fill:#ffffff;stroke:#000000;stroke-width:0.3;" x="495.788164925" xlink:href="#m2cacc5b3b2" y="365.569152724"/>
     <use style="fill:#ffffff;stroke:#000000;stroke-width:0.3;" x="531.54855297" xlink:href="#m2cacc5b3b2" y="339.205767272"/>
     <use style="fill:#ffffff;stroke:#000000;stroke-width:0.3;" x="435.198070802" xlink:href="#m2cacc5b3b2" y="284.646749803"/>
    </g>
   </g>
   <g id="PathCollection_2">
    <defs>
     <path d="M 0 2.236068 
C 0.593012 2.236068 1.161816 2.000462 1.581139 1.581139 
C 2.000462 1.161816 2.236068 0.593012 2.236068 0 
C 2.236068 -0.593012 2.000462 -1.161816 1.581139 -1.581139 
C 1.161816 -2.000462 0.593012 -2.236068 0 -2.236068 
C -0.593012 -2.236068 -1.161816 -2.000462 -1.581139 -1.581139 
C -2.000462 -1.161816 -2.236068 -0.593012 -2.236068 0 
C -2.236068 0.593012 -2.000462 1.161816 -1.581139 1.581139 
C -1.161816 2.000462 -0.593012 2.236068 0 2.236068 
z
" id="ma33b35c533" style="stroke:#008000;stroke-opacity:0.6;stroke-width:0.3;"/>
    </defs>
    <g clip-path="url(#p22a976f292)">
     <use style="fill:#008000;fill-opacity:0.6;stroke:#008000;stroke-opacity:0.6;stroke-width:0.3;" x="201.6" xlink:href="#ma33b35c533" y="351.0"/>
     <use style="fill:#008000;fill-opacity:0.6;stroke:#008000;stroke-opacity:0.6;stroke-width:0.3;" x="466.734510865" xlink:href="#ma33b35c533" y="158.711845292"/>
     <use style="fill:#008000;fill-opacity:0.6;stroke:#008000;stroke-opacity:0.6;stroke-width:0.3;" x="421.015029623" xlink:href="#ma33b35c533" y="312.561837827"/>
     <use style="fill:#008000;fill-opacity:0.6;stroke:#008000;stroke-opacity:0.6;stroke-width:0.3;" x="596.642364351" xlink:href="#ma33b35c533" y="247.713914707"/>
     <use style="fill:#008000;fill-opacity:0.6;stroke:#008000;stroke-opacity:0.6;stroke-width:0.3;" x="517.57842434" xlink:href="#ma33b35c533" y="181.022654573"/>
     <use style="fill:#008000;fill-opacity:0.6;stroke:#008000;stroke-opacity:0.6;stroke-width:0.3;" x="544.611978203" xlink:href="#ma33b35c533" y="201.268374757"/>
     <use style="fill:#008000;fill-opacity:0.6;stroke:#008000;stroke-opacity:0.6;stroke-width:0.3;" x="535.033927012" xlink:href="#ma33b35c533" y="145.79261053"/>
     <use style="fill:#008000;fill-opacity:0.6;stroke:#008000;stroke-opacity:0.6;stroke-width:0.3;" x="584.698128101" xlink:href="#ma33b35c533" y="250.253601172"/>
     <use style="fill:#008000;fill-opacity:0.6;stroke:#008000;stroke-opacity:0.6;stroke-width:0.3;" x="466.56140797" xlink:href="#ma33b35c533" y="217.180761342"/>
     <use style="fill:#008000;fill-opacity:0.6;stroke:#008000;stroke-opacity:0.6;stroke-width:0.3;" x="542.767692545" xlink:href="#ma33b35c533" y="190.013027102"/>
     <use style="fill:#008000;fill-opacity:0.6;stroke:#008000;stroke-opacity:0.6;stroke-width:0.3;" x="531.153306511" xlink:href="#ma33b35c533" y="222.997347825"/>
     <use style="fill:#008000;fill-opacity:0.6;stroke:#008000;stroke-opacity:0.6;stroke-width:0.3;" x="498.515269825" xlink:href="#ma33b35c533" y="216.662635837"/>
     <use style="fill:#008000;fill-opacity:0.6;stroke:#008000;stroke-opacity:0.6;stroke-width:0.3;" x="534.774853874" xlink:href="#ma33b35c533" y="193.748485498"/>
     <use style="fill:#008000;fill-opacity:0.6;stroke:#008000;stroke-opacity:0.6;stroke-width:0.3;" x="475.157689825" xlink:href="#ma33b35c533" y="141.292421935"/>
     <use style="fill:#008000;fill-opacity:0.6;stroke:#008000;stroke-opacity:0.6;stroke-width:0.3;" x="510.593701401" xlink:href="#ma33b35c533" y="297.794847101"/>
     <use style="fill:#008000;fill-opacity:0.6;stroke:#008000;stroke-opacity:0.6;stroke-width:0.3;" x="541.814970648" xlink:href="#ma33b35c533" y="212.43359586"/>
     <use style="fill:#008000;fill-opacity:0.6;stroke:#008000;stroke-opacity:0.6;stroke-width:0.3;" x="547.978833242" xlink:href="#ma33b35c533" y="167.071921174"/>
     <use style="fill:#008000;fill-opacity:0.6;stroke:#008000;stroke-opacity:0.6;stroke-width:0.3;" x="497.46498372" xlink:href="#ma33b35c533" y="192.105701074"/>
     <use style="fill:#008000;fill-opacity:0.6;stroke:#008000;stroke-opacity:0.6;stroke-width:0.3;" x="409.764865619" xlink:href="#ma33b35c533" y="200.272726987"/>
     <use style="fill:#008000;fill-opacity:0.6;stroke:#008000;stroke-opacity:0.6;stroke-width:0.3;" x="511.092601606" xlink:href="#ma33b35c533" y="194.016788965"/>
     <use style="fill:#008000;fill-opacity:0.6;stroke:#008000;stroke-opacity:0.6;stroke-width:0.3;" x="551.363508624" xlink:href="#ma33b35c533" y="196.963102381"/>
     <use style="fill:#008000;fill-opacity:0.6;stroke:#008000;stroke-opacity:0.6;stroke-width:0.3;" x="495.984804659" xlink:href="#ma33b35c533" y="266.084834813"/>
     <use style="fill:#008000;fill-opacity:0.6;stroke:#008000;stroke-opacity:0.6;stroke-width:0.3;" x="576.82858565" xlink:href="#ma33b35c533" y="133.68222856"/>
     <use style="fill:#008000;fill-opacity:0.6;stroke:#008000;stroke-opacity:0.6;stroke-width:0.3;" x="500.295537248" xlink:href="#ma33b35c533" y="256.294135009"/>
     <use style="fill:#008000;fill-opacity:0.6;stroke:#008000;stroke-opacity:0.6;stroke-width:0.3;" x="519.642115328" xlink:href="#ma33b35c533" y="260.527445602"/>
     <use style="fill:#008000;fill-opacity:0.6;stroke:#008000;stroke-opacity:0.6;stroke-width:0.3;" x="535.764974088" xlink:href="#ma33b35c533" y="224.858511556"/>
     <use style="fill:#008000;fill-opacity:0.6;stroke:#008000;stroke-opacity:0.6;stroke-width:0.3;" x="433.250864026" xlink:href="#ma33b35c533" y="133.814066781"/>
     <use style="fill:#008000;fill-opacity:0.6;stroke:#008000;stroke-opacity:0.6;stroke-width:0.3;" x="541.482646987" xlink:href="#ma33b35c533" y="194.262375233"/>
     <use style="fill:#008000;fill-opacity:0.6;stroke:#008000;stroke-opacity:0.6;stroke-width:0.3;" x="484.529791502" xlink:href="#ma33b35c533" y="85.2644689753"/>
     <use style="fill:#008000;fill-opacity:0.6;stroke:#008000;stroke-opacity:0.6;stroke-width:0.3;" x="522.409737866" xlink:href="#ma33b35c533" y="218.853931065"/>
     <use style="fill:#008000;fill-opacity:0.6;stroke:#008000;stroke-opacity:0.6;stroke-width:0.3;" x="636.680920734" xlink:href="#ma33b35c533" y="133.157996879"/>
     <use style="fill:#008000;fill-opacity:0.6;stroke:#008000;stroke-opacity:0.6;stroke-width:0.3;" x="498.134152431" xlink:href="#ma33b35c533" y="242.031875832"/>
     <use style="fill:#008000;fill-opacity:0.6;stroke:#008000;stroke-opacity:0.6;stroke-width:0.3;" x="495.337155133" xlink:href="#ma33b35c533" y="246.679776725"/>
     <use style="fill:#008000;fill-opacity:0.6;stroke:#008000;stroke-opacity:0.6;stroke-width:0.3;" x="504.397577701" xlink:href="#ma33b35c533" y="243.130815648"/>
     <use style="fill:#008000;fill-opacity:0.6;stroke:#008000;stroke-opacity:0.6;stroke-width:0.3;" x="475.397731089" xlink:href="#ma33b35c533" y="85.5833423663"/>
     <use style="fill:#008000;fill-opacity:0.6;stroke:#008000;stroke-opacity:0.6;stroke-width:0.3;" x="568.382085524" xlink:href="#ma33b35c533" y="330.091457548"/>
     <use style="fill:#008000;fill-opacity:0.6;stroke:#008000;stroke-opacity:0.6;stroke-width:0.3;" x="495.788164925" xlink:href="#ma33b35c533" y="365.569152724"/>
     <use style="fill:#008000;fill-opacity:0.6;stroke:#008000;stroke-opacity:0.6;stroke-width:0.3;" x="490.04492" xlink:href="#ma33b35c533" y="251.651467592"/>
     <use style="fill:#008000;fill-opacity:0.6;stroke:#008000;stroke-opacity:0.6;stroke-width:0.3;" x="534.452124129" xlink:href="#ma33b35c533" y="198.475278272"/>
     <use style="fill:#008000;fill-opacity:0.6;stroke:#008000;stroke-opacity:0.6;stroke-width:0.3;" x="531.54855297" xlink:href="#ma33b35c533" y="339.205767272"/>
     <use style="fill:#008000;fill-opacity:0.6;stroke:#008000;stroke-opacity:0.6;stroke-width:0.3;" x="505.52396657" xlink:href="#ma33b35c533" y="257.726217487"/>
     <use style="fill:#008000;fill-opacity:0.6;stroke:#008000;stroke-opacity:0.6;stroke-width:0.3;" x="541.407711396" xlink:href="#ma33b35c533" y="158.098494043"/>
     <use style="fill:#008000;fill-opacity:0.6;stroke:#008000;stroke-opacity:0.6;stroke-width:0.3;" x="435.198070802" xlink:href="#ma33b35c533" y="284.646749803"/>
     <use style="fill:#008000;fill-opacity:0.6;stroke:#008000;stroke-opacity:0.6;stroke-width:0.3;" x="474.90521099" xlink:href="#ma33b35c533" y="121.961522126"/>
     <use style="fill:#008000;fill-opacity:0.6;stroke:#008000;stroke-opacity:0.6;stroke-width:0.3;" x="634.961505679" xlink:href="#ma33b35c533" y="255.081239779"/>
     <use style="fill:#008000;fill-opacity:0.6;stroke:#008000;stroke-opacity:0.6;stroke-width:0.3;" x="563.924224978" xlink:href="#ma33b35c533" y="284.05311816"/>
     <use style="fill:#008000;fill-opacity:0.6;stroke:#008000;stroke-opacity:0.6;stroke-width:0.3;" x="631.650702407" xlink:href="#ma33b35c533" y="253.411900006"/>
     <use style="fill:#008000;fill-opacity:0.6;stroke:#008000;stroke-opacity:0.6;stroke-width:0.3;" x="616.011969755" xlink:href="#ma33b35c533" y="273.310339992"/>
     <use style="fill:#008000;fill-opacity:0.6;stroke:#008000;stroke-opacity:0.6;stroke-width:0.3;" x="513.740022197" xlink:href="#ma33b35c533" y="258.314637703"/>
     <use style="fill:#008000;fill-opacity:0.6;stroke:#008000;stroke-opacity:0.6;stroke-width:0.3;" x="635.809501716" xlink:href="#ma33b35c533" y="272.78049062"/>
    </g>
   </g>
   <g id="PathCollection_3">
    <defs>
     <path d="M 0 2.236068 
C 0.593012 2.236068 1.161816 2.000462 1.581139 1.581139 
C 2.000462 1.161816 2.236068 0.593012 2.236068 0 
C 2.236068 -0.593012 2.000462 -1.161816 1.581139 -1.581139 
C 1.161816 -2.000462 0.593012 -2.236068 0 -2.236068 
C -0.593012 -2.236068 -1.161816 -2.000462 -1.581139 -1.581139 
C -2.000462 -1.161816 -2.236068 -0.593012 -2.236068 0 
C -2.236068 0.593012 -2.000462 1.161816 -1.581139 1.581139 
C -1.161816 2.000462 -0.593012 2.236068 0 2.236068 
z
" id="m86c755253f" style="stroke:#ff0000;stroke-opacity:0.6;stroke-width:0.3;"/>
    </defs>
    <g clip-path="url(#p22a976f292)">
     <use style="fill:#ff0000;fill-opacity:0.6;stroke:#ff0000;stroke-opacity:0.6;stroke-width:0.3;" x="304.6067415" xlink:href="#m86c755253f" y="622.347911673"/>
     <use style="fill:#ff0000;fill-opacity:0.6;stroke:#ff0000;stroke-opacity:0.6;stroke-width:0.3;" x="262.097149084" xlink:href="#m86c755253f" y="504.132379602"/>
     <use style="fill:#ff0000;fill-opacity:0.6;stroke:#ff0000;stroke-opacity:0.6;stroke-width:0.3;" x="280.498509295" xlink:href="#m86c755253f" y="496.321271999"/>
     <use style="fill:#ff0000;fill-opacity:0.6;stroke:#ff0000;stroke-opacity:0.6;stroke-width:0.3;" x="210.991365212" xlink:href="#m86c755253f" y="621.890369057"/>
     <use style="fill:#ff0000;fill-opacity:0.6;stroke:#ff0000;stroke-opacity:0.6;stroke-width:0.3;" x="199.644576502" xlink:href="#m86c755253f" y="510.671321662"/>
     <use style="fill:#ff0000;fill-opacity:0.6;stroke:#ff0000;stroke-opacity:0.6;stroke-width:0.3;" x="208.113381632" xlink:href="#m86c755253f" y="481.954790714"/>
     <use style="fill:#ff0000;fill-opacity:0.6;stroke:#ff0000;stroke-opacity:0.6;stroke-width:0.3;" x="111.134394883" xlink:href="#m86c755253f" y="639.710873749"/>
     <use style="fill:#ff0000;fill-opacity:0.6;stroke:#ff0000;stroke-opacity:0.6;stroke-width:0.3;" x="134.121406796" xlink:href="#m86c755253f" y="390.342760832"/>
     <use style="fill:#ff0000;fill-opacity:0.6;stroke:#ff0000;stroke-opacity:0.6;stroke-width:0.3;" x="233.948559552" xlink:href="#m86c755253f" y="527.881768043"/>
     <use style="fill:#ff0000;fill-opacity:0.6;stroke:#ff0000;stroke-opacity:0.6;stroke-width:0.3;" x="205.603724219" xlink:href="#m86c755253f" y="511.935503684"/>
     <use style="fill:#ff0000;fill-opacity:0.6;stroke:#ff0000;stroke-opacity:0.6;stroke-width:0.3;" x="169.880501359" xlink:href="#m86c755253f" y="487.927612143"/>
     <use style="fill:#ff0000;fill-opacity:0.6;stroke:#ff0000;stroke-opacity:0.6;stroke-width:0.3;" x="282.524225912" xlink:href="#m86c755253f" y="442.847507506"/>
     <use style="fill:#ff0000;fill-opacity:0.6;stroke:#ff0000;stroke-opacity:0.6;stroke-width:0.3;" x="137.364599627" xlink:href="#m86c755253f" y="515.283759158"/>
     <use style="fill:#ff0000;fill-opacity:0.6;stroke:#ff0000;stroke-opacity:0.6;stroke-width:0.3;" x="149.832298062" xlink:href="#m86c755253f" y="458.900493666"/>
     <use style="fill:#ff0000;fill-opacity:0.6;stroke:#ff0000;stroke-opacity:0.6;stroke-width:0.3;" x="166.898435676" xlink:href="#m86c755253f" y="478.866822324"/>
     <use style="fill:#ff0000;fill-opacity:0.6;stroke:#ff0000;stroke-opacity:0.6;stroke-width:0.3;" x="243.333494925" xlink:href="#m86c755253f" y="479.100948595"/>
     <use style="fill:#ff0000;fill-opacity:0.6;stroke:#ff0000;stroke-opacity:0.6;stroke-width:0.3;" x="192.730604525" xlink:href="#m86c755253f" y="452.268757095"/>
     <use style="fill:#ff0000;fill-opacity:0.6;stroke:#ff0000;stroke-opacity:0.6;stroke-width:0.3;" x="250.555857754" xlink:href="#m86c755253f" y="449.782273222"/>
     <use style="fill:#ff0000;fill-opacity:0.6;stroke:#ff0000;stroke-opacity:0.6;stroke-width:0.3;" x="219.469406585" xlink:href="#m86c755253f" y="492.016645236"/>
     <use style="fill:#ff0000;fill-opacity:0.6;stroke:#ff0000;stroke-opacity:0.6;stroke-width:0.3;" x="251.517441452" xlink:href="#m86c755253f" y="458.598978166"/>
     <use style="fill:#ff0000;fill-opacity:0.6;stroke:#ff0000;stroke-opacity:0.6;stroke-width:0.3;" x="265.860334892" xlink:href="#m86c755253f" y="523.446263234"/>
     <use style="fill:#ff0000;fill-opacity:0.6;stroke:#ff0000;stroke-opacity:0.6;stroke-width:0.3;" x="252.562578245" xlink:href="#m86c755253f" y="465.206789953"/>
     <use style="fill:#ff0000;fill-opacity:0.6;stroke:#ff0000;stroke-opacity:0.6;stroke-width:0.3;" x="200.289426846" xlink:href="#m86c755253f" y="482.150991024"/>
     <use style="fill:#ff0000;fill-opacity:0.6;stroke:#ff0000;stroke-opacity:0.6;stroke-width:0.3;" x="199.146561911" xlink:href="#m86c755253f" y="482.451186619"/>
     <use style="fill:#ff0000;fill-opacity:0.6;stroke:#ff0000;stroke-opacity:0.6;stroke-width:0.3;" x="238.789817256" xlink:href="#m86c755253f" y="441.35256548"/>
     <use style="fill:#ff0000;fill-opacity:0.6;stroke:#ff0000;stroke-opacity:0.6;stroke-width:0.3;" x="224.613806135" xlink:href="#m86c755253f" y="617.660366242"/>
     <use style="fill:#ff0000;fill-opacity:0.6;stroke:#ff0000;stroke-opacity:0.6;stroke-width:0.3;" x="176.311390358" xlink:href="#m86c755253f" y="450.773770186"/>
     <use style="fill:#ff0000;fill-opacity:0.6;stroke:#ff0000;stroke-opacity:0.6;stroke-width:0.3;" x="178.079861922" xlink:href="#m86c755253f" y="393.229921238"/>
     <use style="fill:#ff0000;fill-opacity:0.6;stroke:#ff0000;stroke-opacity:0.6;stroke-width:0.3;" x="127.291048974" xlink:href="#m86c755253f" y="575.586823107"/>
     <use style="fill:#ff0000;fill-opacity:0.6;stroke:#ff0000;stroke-opacity:0.6;stroke-width:0.3;" x="243.404353351" xlink:href="#m86c755253f" y="462.30562579"/>
     <use style="fill:#ff0000;fill-opacity:0.6;stroke:#ff0000;stroke-opacity:0.6;stroke-width:0.3;" x="297.676400299" xlink:href="#m86c755253f" y="542.690102599"/>
     <use style="fill:#ff0000;fill-opacity:0.6;stroke:#ff0000;stroke-opacity:0.6;stroke-width:0.3;" x="321.719883136" xlink:href="#m86c755253f" y="508.081843369"/>
     <use style="fill:#ff0000;fill-opacity:0.6;stroke:#ff0000;stroke-opacity:0.6;stroke-width:0.3;" x="262.898593561" xlink:href="#m86c755253f" y="473.992412965"/>
     <use style="fill:#ff0000;fill-opacity:0.6;stroke:#ff0000;stroke-opacity:0.6;stroke-width:0.3;" x="267.232182497" xlink:href="#m86c755253f" y="484.29918334"/>
     <use style="fill:#ff0000;fill-opacity:0.6;stroke:#ff0000;stroke-opacity:0.6;stroke-width:0.3;" x="343.226145315" xlink:href="#m86c755253f" y="479.507550843"/>
     <use style="fill:#ff0000;fill-opacity:0.6;stroke:#ff0000;stroke-opacity:0.6;stroke-width:0.3;" x="306.51160008" xlink:href="#m86c755253f" y="416.674708713"/>
     <use style="fill:#ff0000;fill-opacity:0.6;stroke:#ff0000;stroke-opacity:0.6;stroke-width:0.3;" x="201.136085341" xlink:href="#m86c755253f" y="480.262935357"/>
     <use style="fill:#ff0000;fill-opacity:0.6;stroke:#ff0000;stroke-opacity:0.6;stroke-width:0.3;" x="261.831839287" xlink:href="#m86c755253f" y="527.185813734"/>
     <use style="fill:#ff0000;fill-opacity:0.6;stroke:#ff0000;stroke-opacity:0.6;stroke-width:0.3;" x="220.947153695" xlink:href="#m86c755253f" y="502.433620148"/>
     <use style="fill:#ff0000;fill-opacity:0.6;stroke:#ff0000;stroke-opacity:0.6;stroke-width:0.3;" x="212.185884173" xlink:href="#m86c755253f" y="595.277197992"/>
     <use style="fill:#ff0000;fill-opacity:0.6;stroke:#ff0000;stroke-opacity:0.6;stroke-width:0.3;" x="114.529033151" xlink:href="#m86c755253f" y="500.985329414"/>
     <use style="fill:#ff0000;fill-opacity:0.6;stroke:#ff0000;stroke-opacity:0.6;stroke-width:0.3;" x="369.428311334" xlink:href="#m86c755253f" y="436.907120056"/>
     <use style="fill:#ff0000;fill-opacity:0.6;stroke:#ff0000;stroke-opacity:0.6;stroke-width:0.3;" x="300.880778307" xlink:href="#m86c755253f" y="453.453315917"/>
     <use style="fill:#ff0000;fill-opacity:0.6;stroke:#ff0000;stroke-opacity:0.6;stroke-width:0.3;" x="135.165619164" xlink:href="#m86c755253f" y="466.554255272"/>
     <use style="fill:#ff0000;fill-opacity:0.6;stroke:#ff0000;stroke-opacity:0.6;stroke-width:0.3;" x="213.209394395" xlink:href="#m86c755253f" y="408.502255793"/>
     <use style="fill:#ff0000;fill-opacity:0.6;stroke:#ff0000;stroke-opacity:0.6;stroke-width:0.3;" x="216.393096448" xlink:href="#m86c755253f" y="514.199018956"/>
     <use style="fill:#ff0000;fill-opacity:0.6;stroke:#ff0000;stroke-opacity:0.6;stroke-width:0.3;" x="179.553864371" xlink:href="#m86c755253f" y="531.361442756"/>
     <use style="fill:#ff0000;fill-opacity:0.6;stroke:#ff0000;stroke-opacity:0.6;stroke-width:0.3;" x="328.143572508" xlink:href="#m86c755253f" y="577.321784042"/>
     <use style="fill:#ff0000;fill-opacity:0.6;stroke:#ff0000;stroke-opacity:0.6;stroke-width:0.3;" x="349.25490778" xlink:href="#m86c755253f" y="466.578730582"/>
     <use style="fill:#ff0000;fill-opacity:0.6;stroke:#ff0000;stroke-opacity:0.6;stroke-width:0.3;" x="217.885008036" xlink:href="#m86c755253f" y="508.981339166"/>
    </g>
   </g>
   <g id="line2d_31">
    <path clip-path="url(#p22a976f292)" d="M 90 126.039718 
L 101.387755 135.114049 
L 112.77551 144.188379 
L 124.163265 153.26271 
L 135.55102 162.337041 
L 146.938776 171.411372 
L 158.326531 180.485702 
L 169.714286 189.560033 
L 181.102041 198.634364 
L 192.489796 207.708695 
L 203.877551 216.783026 
L 215.265306 225.857356 
L 226.653061 234.931687 
L 238.040816 244.006018 
L 249.428571 253.080349 
L 260.816327 262.154679 
L 272.204082 271.22901 
L 283.591837 280.303341 
L 294.979592 289.377672 
L 306.367347 298.452003 
L 317.755102 307.526333 
L 329.142857 316.600664 
L 340.530612 325.674995 
L 351.918367 334.749326 
L 363.306122 343.823656 
L 374.693878 352.897987 
L 386.081633 361.972318 
L 397.469388 371.046649 
L 408.857143 380.12098 
L 420.244898 389.19531 
L 431.632653 398.269641 
L 443.020408 407.343972 
L 454.408163 416.418303 
L 465.795918 425.492633 
L 477.183673 434.566964 
L 488.571429 443.641295 
L 499.959184 452.715626 
L 511.346939 461.789957 
L 522.734694 470.864287 
L 534.122449 479.938618 
L 545.510204 489.012949 
L 556.897959 498.08728 
L 568.285714 507.16161 
L 579.673469 516.235941 
L 591.061224 525.310272 
L 602.44898 534.384603 
L 613.836735 543.458934 
L 625.22449 552.533264 
L 636.612245 561.607595 
L 648 570.681926 
" style="fill:none;opacity:0.6;stroke:#0000ff;stroke-linecap:round;stroke-width:1.75;"/>
   </g>
   <g id="line2d_32">
    <path clip-path="url(#p22a976f292)" d="M 90 -37.355174 
M 135.62362 -1 
L 146.938776 8.016479 
L 158.326531 17.09081 
L 169.714286 26.165141 
L 181.102041 35.239472 
L 192.489796 44.313803 
L 203.877551 53.388133 
L 215.265306 62.462464 
L 226.653061 71.536795 
L 238.040816 80.611126 
L 249.428571 89.685456 
L 260.816327 98.759787 
L 272.204082 107.834118 
L 283.591837 116.908449 
L 294.979592 125.98278 
L 306.367347 135.05711 
L 317.755102 144.131441 
L 329.142857 153.205772 
L 340.530612 162.280103 
L 351.918367 171.354433 
L 363.306122 180.428764 
L 374.693878 189.503095 
L 386.081633 198.577426 
L 397.469388 207.651757 
L 408.857143 216.726087 
L 420.244898 225.800418 
L 431.632653 234.874749 
L 443.020408 243.94908 
L 454.408163 253.02341 
L 465.795918 262.097741 
L 477.183673 271.172072 
L 488.571429 280.246403 
L 499.959184 289.320734 
L 511.346939 298.395064 
L 522.734694 307.469395 
L 534.122449 316.543726 
L 545.510204 325.618057 
L 556.897959 334.692387 
L 568.285714 343.766718 
L 579.673469 352.841049 
L 591.061224 361.91538 
L 602.44898 370.989711 
L 613.836735 380.064041 
L 625.22449 389.138372 
L 636.612245 398.212703 
L 648 407.287034 
" style="fill:none;opacity:0.3;stroke:#0000ff;stroke-dasharray:6.000000,6.000000;stroke-dashoffset:0.0;stroke-width:1.75;"/>
   </g>
   <g id="line2d_33">
    <path clip-path="url(#p22a976f292)" d="M 90 289.43461 
L 101.387755 298.508941 
L 112.77551 307.583271 
L 124.163265 316.657602 
L 135.55102 325.731933 
L 146.938776 334.806264 
L 158.326531 343.880595 
L 169.714286 352.954925 
L 181.102041 362.029256 
L 192.489796 371.103587 
L 203.877551 380.177918 
L 215.265306 389.252248 
L 226.653061 398.326579 
L 238.040816 407.40091 
L 249.428571 416.475241 
L 260.816327 425.549572 
L 272.204082 434.623902 
L 283.591837 443.698233 
L 294.979592 452.772564 
L 306.367347 461.846895 
L 317.755102 470.921225 
L 329.142857 479.995556 
L 340.530612 489.069887 
L 351.918367 498.144218 
L 363.306122 507.218549 
L 374.693878 516.292879 
L 386.081633 525.36721 
L 397.469388 534.441541 
L 408.857143 543.515872 
L 420.244898 552.590202 
L 431.632653 561.664533 
L 443.020408 570.738864 
L 454.408163 579.813195 
L 465.795918 588.887526 
L 477.183673 597.961856 
L 488.571429 607.036187 
L 499.959184 616.110518 
L 511.346939 625.184849 
L 522.734694 634.259179 
L 534.122449 643.33351 
L 545.510204 652.407841 
L 556.897959 661.482172 
L 568.285714 670.556503 
L 579.673469 679.630833 
L 591.061224 688.705164 
L 602.44898 697.779495 
L 613.836735 706.853826 
L 625.22449 715.928156 
L 631.589357 721 
" style="fill:none;opacity:0.3;stroke:#0000ff;stroke-dasharray:6.000000,6.000000;stroke-dashoffset:0.0;stroke-width:1.75;"/>
   </g>
   <g id="patch_3">
    <path d="M 90 72 
L 648 72 
" style="fill:none;"/>
   </g>
   <g id="patch_4">
    <path d="M 648 630 
L 648 72 
" style="fill:none;"/>
   </g>
   <g id="patch_5">
    <path d="M 90 630 
L 648 630 
" style="fill:none;"/>
   </g>
   <g id="patch_6">
    <path d="M 90 630 
L 90 72 
" style="fill:none;"/>
   </g>
  </g>
 </g>
 <defs>
  <clipPath id="p22a976f292">
   <rect height="558.0" width="558.0" x="90.0" y="72.0"/>
  </clipPath>
 </defs>
</svg>
