<?xml version="1.0" encoding="utf-8" standalone="no"?>
<!DOCTYPE svg PUBLIC "-//W3C//DTD SVG 1.1//EN"
  "http://www.w3.org/Graphics/SVG/1.1/DTD/svg11.dtd">
<!-- Created with matplotlib (http://matplotlib.org/) -->
<svg height="720pt" version="1.1" viewBox="0 0 720 720" width="720pt" xmlns="http://www.w3.org/2000/svg" xmlns:xlink="http://www.w3.org/1999/xlink">
 <defs>
  <style type="text/css">
*{stroke-linecap:butt;stroke-linejoin:round;stroke-miterlimit:100000;}
  </style>
 </defs>
 <g id="figure_1">
  <g id="patch_1">
   <path d="M 0 720 
L 720 720 
L 720 0 
L 0 0 
z
" style="fill:#ffffff;"/>
  </g>
  <g id="axes_1">
   <g id="patch_2">
    <path d="M 90 630 
L 648 630 
L 648 72 
L 90 72 
z
" style="fill:#eaeaf2;"/>
   </g>
   <g id="matplotlib.axis_1">
    <g id="xtick_1">
     <g id="line2d_1">
      <path clip-path="url(#p87232e1df2)" d="M 90 630 
L 90 72 
" style="fill:none;stroke:#ffffff;stroke-linecap:round;"/>
     </g>
     <g id="line2d_2">
      <defs>
       <path d="M 0 0 
L 0 0 
" id="m0e54910d04" style="stroke:#262626;"/>
      </defs>
      <g>
       <use style="fill:#262626;stroke:#262626;" x="90.0" xlink:href="#m0e54910d04" y="630.0"/>
      </g>
     </g>
     <g id="line2d_3">
      <g>
       <use style="fill:#262626;stroke:#262626;" x="90.0" xlink:href="#m0e54910d04" y="72.0"/>
      </g>
     </g>
     <g id="text_1">
      <!-- −10 -->
      <defs>
       <path d="M 4.9375 29.6875 
L 4.9375 36.8125 
L 53.515625 36.8125 
L 53.515625 29.6875 
z
" id="LiberationSans-2212"/>
       <path d="M 7.625 0 
L 7.625 7.46875 
L 25.140625 7.46875 
L 25.140625 60.40625 
L 9.625 49.3125 
L 9.625 57.625 
L 25.875 68.796875 
L 33.984375 68.796875 
L 33.984375 7.46875 
L 50.734375 7.46875 
L 50.734375 0 
z
" id="LiberationSans-31"/>
       <path d="M 51.703125 34.421875 
Q 51.703125 24.515625 49.828125 17.75 
Q 47.953125 10.984375 44.703125 6.8125 
Q 41.453125 2.640625 37.0625 0.828125 
Q 32.671875 -0.984375 27.6875 -0.984375 
Q 22.65625 -0.984375 18.3125 0.828125 
Q 13.96875 2.640625 10.765625 6.78125 
Q 7.5625 10.9375 5.734375 17.703125 
Q 3.90625 24.46875 3.90625 34.421875 
Q 3.90625 44.828125 5.734375 51.640625 
Q 7.5625 58.453125 10.78125 62.5 
Q 14.015625 66.546875 18.40625 68.1875 
Q 22.796875 69.828125 27.984375 69.828125 
Q 32.90625 69.828125 37.21875 68.1875 
Q 41.546875 66.546875 44.765625 62.5 
Q 48 58.453125 49.84375 51.640625 
Q 51.703125 44.828125 51.703125 34.421875 
M 42.78125 34.421875 
Q 42.78125 42.625 41.796875 48.0625 
Q 40.828125 53.515625 38.921875 56.765625 
Q 37.015625 60.015625 34.25 61.359375 
Q 31.5 62.703125 27.984375 62.703125 
Q 24.265625 62.703125 21.4375 61.328125 
Q 18.609375 59.96875 16.671875 56.71875 
Q 14.75 53.46875 13.765625 48.015625 
Q 12.796875 42.578125 12.796875 34.421875 
Q 12.796875 26.515625 13.796875 21.09375 
Q 14.796875 15.671875 16.71875 12.375 
Q 18.65625 9.078125 21.4375 7.640625 
Q 24.21875 6.203125 27.78125 6.203125 
Q 31.25 6.203125 34.03125 7.640625 
Q 36.8125 9.078125 38.734375 12.375 
Q 40.671875 15.671875 41.71875 21.09375 
Q 42.78125 26.515625 42.78125 34.421875 
" id="LiberationSans-30"/>
      </defs>
      <g style="fill:#262626;" transform="translate(81.51875 644.246875)scale(0.1 -0.1)">
       <use xlink:href="#LiberationSans-2212"/>
       <use x="58.3984375" xlink:href="#LiberationSans-31"/>
       <use x="114.013671875" xlink:href="#LiberationSans-30"/>
      </g>
     </g>
    </g>
    <g id="xtick_2">
     <g id="line2d_4">
      <path clip-path="url(#p87232e1df2)" d="M 229.5 630 
L 229.5 72 
" style="fill:none;stroke:#ffffff;stroke-linecap:round;"/>
     </g>
     <g id="line2d_5">
      <g>
       <use style="fill:#262626;stroke:#262626;" x="229.5" xlink:href="#m0e54910d04" y="630.0"/>
      </g>
     </g>
     <g id="line2d_6">
      <g>
       <use style="fill:#262626;stroke:#262626;" x="229.5" xlink:href="#m0e54910d04" y="72.0"/>
      </g>
     </g>
     <g id="text_2">
      <!-- −5 -->
      <defs>
       <path d="M 51.421875 22.40625 
Q 51.421875 17.234375 49.859375 12.9375 
Q 48.296875 8.640625 45.21875 5.53125 
Q 42.140625 2.4375 37.578125 0.71875 
Q 33.015625 -0.984375 27 -0.984375 
Q 21.578125 -0.984375 17.546875 0.28125 
Q 13.53125 1.5625 10.734375 3.78125 
Q 7.953125 6 6.3125 8.984375 
Q 4.6875 11.96875 4 15.375 
L 12.890625 16.40625 
Q 13.421875 14.453125 14.390625 12.625 
Q 15.375 10.796875 17.0625 9.34375 
Q 18.75 7.90625 21.21875 7.046875 
Q 23.6875 6.203125 27.203125 6.203125 
Q 30.609375 6.203125 33.390625 7.25 
Q 36.1875 8.296875 38.15625 10.34375 
Q 40.140625 12.40625 41.203125 15.375 
Q 42.28125 18.359375 42.28125 22.21875 
Q 42.28125 25.390625 41.25 28.046875 
Q 40.234375 30.71875 38.328125 32.640625 
Q 36.421875 34.578125 33.65625 35.640625 
Q 30.90625 36.71875 27.390625 36.71875 
Q 25.203125 36.71875 23.34375 36.328125 
Q 21.484375 35.9375 19.890625 35.25 
Q 18.3125 34.578125 17.015625 33.671875 
Q 15.71875 32.765625 14.59375 31.78125 
L 6 31.78125 
L 8.296875 68.796875 
L 47.40625 68.796875 
L 47.40625 61.328125 
L 16.3125 61.328125 
L 14.984375 39.5 
Q 17.328125 41.3125 20.84375 42.59375 
Q 24.359375 43.890625 29.203125 43.890625 
Q 34.328125 43.890625 38.421875 42.328125 
Q 42.53125 40.765625 45.40625 37.90625 
Q 48.296875 35.0625 49.859375 31.109375 
Q 51.421875 27.15625 51.421875 22.40625 
" id="LiberationSans-35"/>
      </defs>
      <g style="fill:#262626;" transform="translate(223.79921875 644.246875)scale(0.1 -0.1)">
       <use xlink:href="#LiberationSans-2212"/>
       <use x="58.3984375" xlink:href="#LiberationSans-35"/>
      </g>
     </g>
    </g>
    <g id="xtick_3">
     <g id="line2d_7">
      <path clip-path="url(#p87232e1df2)" d="M 369 630 
L 369 72 
" style="fill:none;stroke:#ffffff;stroke-linecap:round;"/>
     </g>
     <g id="line2d_8">
      <g>
       <use style="fill:#262626;stroke:#262626;" x="369.0" xlink:href="#m0e54910d04" y="630.0"/>
      </g>
     </g>
     <g id="line2d_9">
      <g>
       <use style="fill:#262626;stroke:#262626;" x="369.0" xlink:href="#m0e54910d04" y="72.0"/>
      </g>
     </g>
     <g id="text_3">
      <!-- 0 -->
      <g style="fill:#262626;" transform="translate(366.21953125 644.246875)scale(0.1 -0.1)">
       <use xlink:href="#LiberationSans-30"/>
      </g>
     </g>
    </g>
    <g id="xtick_4">
     <g id="line2d_10">
      <path clip-path="url(#p87232e1df2)" d="M 508.5 630 
L 508.5 72 
" style="fill:none;stroke:#ffffff;stroke-linecap:round;"/>
     </g>
     <g id="line2d_11">
      <g>
       <use style="fill:#262626;stroke:#262626;" x="508.5" xlink:href="#m0e54910d04" y="630.0"/>
      </g>
     </g>
     <g id="line2d_12">
      <g>
       <use style="fill:#262626;stroke:#262626;" x="508.5" xlink:href="#m0e54910d04" y="72.0"/>
      </g>
     </g>
     <g id="text_4">
      <!-- 5 -->
      <g style="fill:#262626;" transform="translate(505.71953125 644.246875)scale(0.1 -0.1)">
       <use xlink:href="#LiberationSans-35"/>
      </g>
     </g>
    </g>
    <g id="xtick_5">
     <g id="line2d_13">
      <path clip-path="url(#p87232e1df2)" d="M 648 630 
L 648 72 
" style="fill:none;stroke:#ffffff;stroke-linecap:round;"/>
     </g>
     <g id="line2d_14">
      <g>
       <use style="fill:#262626;stroke:#262626;" x="648.0" xlink:href="#m0e54910d04" y="630.0"/>
      </g>
     </g>
     <g id="line2d_15">
      <g>
       <use style="fill:#262626;stroke:#262626;" x="648.0" xlink:href="#m0e54910d04" y="72.0"/>
      </g>
     </g>
     <g id="text_5">
      <!-- 10 -->
      <g style="fill:#262626;" transform="translate(642.4390625 644.246875)scale(0.1 -0.1)">
       <use xlink:href="#LiberationSans-31"/>
       <use x="55.615234375" xlink:href="#LiberationSans-30"/>
      </g>
     </g>
    </g>
    <g id="text_6">
     <!-- X -->
     <defs>
      <path d="M 54.296875 0 
L 33.640625 30.078125 
L 12.546875 0 
L 2.25 0 
L 28.421875 35.75 
L 4.25 68.796875 
L 14.546875 68.796875 
L 33.6875 41.796875 
L 52.296875 68.796875 
L 62.59375 68.796875 
L 39.0625 36.078125 
L 64.59375 0 
z
" id="LiberationSans-58"/>
     </defs>
     <g style="fill:#262626;" transform="translate(362.99671875 664.36625)scale(0.18 -0.18)">
      <use xlink:href="#LiberationSans-58"/>
     </g>
    </g>
   </g>
   <g id="matplotlib.axis_2">
    <g id="ytick_1">
     <g id="line2d_16">
      <path clip-path="url(#p87232e1df2)" d="M 90 630 
L 648 630 
" style="fill:none;stroke:#ffffff;stroke-linecap:round;"/>
     </g>
     <g id="line2d_17">
      <g>
       <use style="fill:#262626;stroke:#262626;" x="90.0" xlink:href="#m0e54910d04" y="630.0"/>
      </g>
     </g>
     <g id="line2d_18">
      <g>
       <use style="fill:#262626;stroke:#262626;" x="648.0" xlink:href="#m0e54910d04" y="630.0"/>
      </g>
     </g>
     <g id="text_7">
      <!-- −10 -->
      <g style="fill:#262626;" transform="translate(66.0375 632.5859375)scale(0.1 -0.1)">
       <use xlink:href="#LiberationSans-2212"/>
       <use x="58.3984375" xlink:href="#LiberationSans-31"/>
       <use x="114.013671875" xlink:href="#LiberationSans-30"/>
      </g>
     </g>
    </g>
    <g id="ytick_2">
     <g id="line2d_19">
      <path clip-path="url(#p87232e1df2)" d="M 90 490.5 
L 648 490.5 
" style="fill:none;stroke:#ffffff;stroke-linecap:round;"/>
     </g>
     <g id="line2d_20">
      <g>
       <use style="fill:#262626;stroke:#262626;" x="90.0" xlink:href="#m0e54910d04" y="490.5"/>
      </g>
     </g>
     <g id="line2d_21">
      <g>
       <use style="fill:#262626;stroke:#262626;" x="648.0" xlink:href="#m0e54910d04" y="490.5"/>
      </g>
     </g>
     <g id="text_8">
      <!-- −5 -->
      <g style="fill:#262626;" transform="translate(71.5984375 493.0859375)scale(0.1 -0.1)">
       <use xlink:href="#LiberationSans-2212"/>
       <use x="58.3984375" xlink:href="#LiberationSans-35"/>
      </g>
     </g>
    </g>
    <g id="ytick_3">
     <g id="line2d_22">
      <path clip-path="url(#p87232e1df2)" d="M 90 351 
L 648 351 
" style="fill:none;stroke:#ffffff;stroke-linecap:round;"/>
     </g>
     <g id="line2d_23">
      <g>
       <use style="fill:#262626;stroke:#262626;" x="90.0" xlink:href="#m0e54910d04" y="351.0"/>
      </g>
     </g>
     <g id="line2d_24">
      <g>
       <use style="fill:#262626;stroke:#262626;" x="648.0" xlink:href="#m0e54910d04" y="351.0"/>
      </g>
     </g>
     <g id="text_9">
      <!-- 0 -->
      <g style="fill:#262626;" transform="translate(77.4390625 353.5859375)scale(0.1 -0.1)">
       <use xlink:href="#LiberationSans-30"/>
      </g>
     </g>
    </g>
    <g id="ytick_4">
     <g id="line2d_25">
      <path clip-path="url(#p87232e1df2)" d="M 90 211.5 
L 648 211.5 
" style="fill:none;stroke:#ffffff;stroke-linecap:round;"/>
     </g>
     <g id="line2d_26">
      <g>
       <use style="fill:#262626;stroke:#262626;" x="90.0" xlink:href="#m0e54910d04" y="211.5"/>
      </g>
     </g>
     <g id="line2d_27">
      <g>
       <use style="fill:#262626;stroke:#262626;" x="648.0" xlink:href="#m0e54910d04" y="211.5"/>
      </g>
     </g>
     <g id="text_10">
      <!-- 5 -->
      <g style="fill:#262626;" transform="translate(77.4390625 214.0859375)scale(0.1 -0.1)">
       <use xlink:href="#LiberationSans-35"/>
      </g>
     </g>
    </g>
    <g id="ytick_5">
     <g id="line2d_28">
      <path clip-path="url(#p87232e1df2)" d="M 90 72 
L 648 72 
" style="fill:none;stroke:#ffffff;stroke-linecap:round;"/>
     </g>
     <g id="line2d_29">
      <g>
       <use style="fill:#262626;stroke:#262626;" x="90.0" xlink:href="#m0e54910d04" y="72.0"/>
      </g>
     </g>
     <g id="line2d_30">
      <g>
       <use style="fill:#262626;stroke:#262626;" x="648.0" xlink:href="#m0e54910d04" y="72.0"/>
      </g>
     </g>
     <g id="text_11">
      <!-- 10 -->
      <g style="fill:#262626;" transform="translate(71.878125 74.5859375)scale(0.1 -0.1)">
       <use xlink:href="#LiberationSans-31"/>
       <use x="55.615234375" xlink:href="#LiberationSans-30"/>
      </g>
     </g>
    </g>
    <g id="text_12">
     <!-- y -->
     <defs>
      <path d="M 29.5 0 
Q 27.640625 -4.78125 25.703125 -8.609375 
Q 23.78125 -12.453125 21.390625 -15.15625 
Q 19 -17.875 16.0625 -19.3125 
Q 13.140625 -20.75 9.328125 -20.75 
Q 7.671875 -20.75 6.25 -20.65625 
Q 4.828125 -20.5625 3.265625 -20.21875 
L 3.265625 -13.625 
Q 4.203125 -13.765625 5.375 -13.84375 
Q 6.546875 -13.921875 7.375 -13.921875 
Q 11.234375 -13.921875 14.546875 -11.03125 
Q 17.875 -8.15625 20.359375 -1.859375 
L 21.1875 0.25 
L 0.25 52.828125 
L 9.625 52.828125 
L 20.75 23.640625 
Q 21.234375 22.3125 21.984375 20.109375 
Q 22.75 17.921875 23.5 15.71875 
Q 24.265625 13.53125 24.84375 11.765625 
Q 25.4375 10.015625 25.53125 9.578125 
Q 25.6875 10.109375 26.25 11.6875 
Q 26.8125 13.28125 27.515625 15.234375 
Q 28.21875 17.1875 28.953125 19.1875 
Q 29.6875 21.1875 30.171875 22.65625 
L 40.53125 52.828125 
L 49.8125 52.828125 
z
" id="LiberationSans-79"/>
     </defs>
     <g style="fill:#262626;" transform="translate(57.3025 355.5)rotate(-90.0)scale(0.18 -0.18)">
      <use xlink:href="#LiberationSans-79"/>
     </g>
    </g>
   </g>
   <g id="PathCollection_1">
    <defs>
     <path d="M 0 5 
C 1.326016 5 2.597899 4.473168 3.535534 3.535534 
C 4.473168 2.597899 5 1.326016 5 0 
C 5 -1.326016 4.473168 -2.597899 3.535534 -3.535534 
C 2.597899 -4.473168 1.326016 -5 0 -5 
C -1.326016 -5 -2.597899 -4.473168 -3.535534 -3.535534 
C -4.473168 -2.597899 -5 -1.326016 -5 0 
C -5 1.326016 -4.473168 2.597899 -3.535534 3.535534 
C -2.597899 4.473168 -1.326016 5 0 5 
z
" id="m13cae44c7d" style="stroke:#000000;stroke-width:0.3;"/>
    </defs>
    <g clip-path="url(#p87232e1df2)">
     <use style="fill:#ffffff;stroke:#000000;stroke-width:0.3;" x="178.079861922" xlink:href="#m13cae44c7d" y="393.229921238"/>
     <use style="fill:#ffffff;stroke:#000000;stroke-width:0.3;" x="306.51160008" xlink:href="#m13cae44c7d" y="416.674708713"/>
     <use style="fill:#ffffff;stroke:#000000;stroke-width:0.3;" x="201.6" xlink:href="#m13cae44c7d" y="351.0"/>
    </g>
   </g>
   <g id="PathCollection_2">
    <defs>
     <path d="M 0 2.236068 
C 0.593012 2.236068 1.161816 2.000462 1.581139 1.581139 
C 2.000462 1.161816 2.236068 0.593012 2.236068 0 
C 2.236068 -0.593012 2.000462 -1.161816 1.581139 -1.581139 
C 1.161816 -2.000462 0.593012 -2.236068 0 -2.236068 
C -0.593012 -2.236068 -1.161816 -2.000462 -1.581139 -1.581139 
C -2.000462 -1.161816 -2.236068 -0.593012 -2.236068 0 
C -2.236068 0.593012 -2.000462 1.161816 -1.581139 1.581139 
C -1.161816 2.000462 -0.593012 2.236068 0 2.236068 
z
" id="m0671b201fa" style="stroke:#008000;stroke-opacity:0.6;stroke-width:0.3;"/>
    </defs>
    <g clip-path="url(#p87232e1df2)">
     <use style="fill:#008000;fill-opacity:0.6;stroke:#008000;stroke-opacity:0.6;stroke-width:0.3;" x="201.6" xlink:href="#m0671b201fa" y="351.0"/>
     <use style="fill:#008000;fill-opacity:0.6;stroke:#008000;stroke-opacity:0.6;stroke-width:0.3;" x="466.734510865" xlink:href="#m0671b201fa" y="158.711845292"/>
     <use style="fill:#008000;fill-opacity:0.6;stroke:#008000;stroke-opacity:0.6;stroke-width:0.3;" x="421.015029623" xlink:href="#m0671b201fa" y="312.561837827"/>
     <use style="fill:#008000;fill-opacity:0.6;stroke:#008000;stroke-opacity:0.6;stroke-width:0.3;" x="596.642364351" xlink:href="#m0671b201fa" y="247.713914707"/>
     <use style="fill:#008000;fill-opacity:0.6;stroke:#008000;stroke-opacity:0.6;stroke-width:0.3;" x="517.57842434" xlink:href="#m0671b201fa" y="181.022654573"/>
     <use style="fill:#008000;fill-opacity:0.6;stroke:#008000;stroke-opacity:0.6;stroke-width:0.3;" x="544.611978203" xlink:href="#m0671b201fa" y="201.268374757"/>
     <use style="fill:#008000;fill-opacity:0.6;stroke:#008000;stroke-opacity:0.6;stroke-width:0.3;" x="535.033927012" xlink:href="#m0671b201fa" y="145.79261053"/>
     <use style="fill:#008000;fill-opacity:0.6;stroke:#008000;stroke-opacity:0.6;stroke-width:0.3;" x="584.698128101" xlink:href="#m0671b201fa" y="250.253601172"/>
     <use style="fill:#008000;fill-opacity:0.6;stroke:#008000;stroke-opacity:0.6;stroke-width:0.3;" x="466.56140797" xlink:href="#m0671b201fa" y="217.180761342"/>
     <use style="fill:#008000;fill-opacity:0.6;stroke:#008000;stroke-opacity:0.6;stroke-width:0.3;" x="542.767692545" xlink:href="#m0671b201fa" y="190.013027102"/>
     <use style="fill:#008000;fill-opacity:0.6;stroke:#008000;stroke-opacity:0.6;stroke-width:0.3;" x="531.153306511" xlink:href="#m0671b201fa" y="222.997347825"/>
     <use style="fill:#008000;fill-opacity:0.6;stroke:#008000;stroke-opacity:0.6;stroke-width:0.3;" x="498.515269825" xlink:href="#m0671b201fa" y="216.662635837"/>
     <use style="fill:#008000;fill-opacity:0.6;stroke:#008000;stroke-opacity:0.6;stroke-width:0.3;" x="534.774853874" xlink:href="#m0671b201fa" y="193.748485498"/>
     <use style="fill:#008000;fill-opacity:0.6;stroke:#008000;stroke-opacity:0.6;stroke-width:0.3;" x="475.157689825" xlink:href="#m0671b201fa" y="141.292421935"/>
     <use style="fill:#008000;fill-opacity:0.6;stroke:#008000;stroke-opacity:0.6;stroke-width:0.3;" x="510.593701401" xlink:href="#m0671b201fa" y="297.794847101"/>
     <use style="fill:#008000;fill-opacity:0.6;stroke:#008000;stroke-opacity:0.6;stroke-width:0.3;" x="541.814970648" xlink:href="#m0671b201fa" y="212.43359586"/>
     <use style="fill:#008000;fill-opacity:0.6;stroke:#008000;stroke-opacity:0.6;stroke-width:0.3;" x="547.978833242" xlink:href="#m0671b201fa" y="167.071921174"/>
     <use style="fill:#008000;fill-opacity:0.6;stroke:#008000;stroke-opacity:0.6;stroke-width:0.3;" x="497.46498372" xlink:href="#m0671b201fa" y="192.105701074"/>
     <use style="fill:#008000;fill-opacity:0.6;stroke:#008000;stroke-opacity:0.6;stroke-width:0.3;" x="409.764865619" xlink:href="#m0671b201fa" y="200.272726987"/>
     <use style="fill:#008000;fill-opacity:0.6;stroke:#008000;stroke-opacity:0.6;stroke-width:0.3;" x="511.092601606" xlink:href="#m0671b201fa" y="194.016788965"/>
     <use style="fill:#008000;fill-opacity:0.6;stroke:#008000;stroke-opacity:0.6;stroke-width:0.3;" x="551.363508624" xlink:href="#m0671b201fa" y="196.963102381"/>
     <use style="fill:#008000;fill-opacity:0.6;stroke:#008000;stroke-opacity:0.6;stroke-width:0.3;" x="495.984804659" xlink:href="#m0671b201fa" y="266.084834813"/>
     <use style="fill:#008000;fill-opacity:0.6;stroke:#008000;stroke-opacity:0.6;stroke-width:0.3;" x="576.82858565" xlink:href="#m0671b201fa" y="133.68222856"/>
     <use style="fill:#008000;fill-opacity:0.6;stroke:#008000;stroke-opacity:0.6;stroke-width:0.3;" x="500.295537248" xlink:href="#m0671b201fa" y="256.294135009"/>
     <use style="fill:#008000;fill-opacity:0.6;stroke:#008000;stroke-opacity:0.6;stroke-width:0.3;" x="519.642115328" xlink:href="#m0671b201fa" y="260.527445602"/>
     <use style="fill:#008000;fill-opacity:0.6;stroke:#008000;stroke-opacity:0.6;stroke-width:0.3;" x="535.764974088" xlink:href="#m0671b201fa" y="224.858511556"/>
     <use style="fill:#008000;fill-opacity:0.6;stroke:#008000;stroke-opacity:0.6;stroke-width:0.3;" x="433.250864026" xlink:href="#m0671b201fa" y="133.814066781"/>
     <use style="fill:#008000;fill-opacity:0.6;stroke:#008000;stroke-opacity:0.6;stroke-width:0.3;" x="541.482646987" xlink:href="#m0671b201fa" y="194.262375233"/>
     <use style="fill:#008000;fill-opacity:0.6;stroke:#008000;stroke-opacity:0.6;stroke-width:0.3;" x="484.529791502" xlink:href="#m0671b201fa" y="85.2644689753"/>
     <use style="fill:#008000;fill-opacity:0.6;stroke:#008000;stroke-opacity:0.6;stroke-width:0.3;" x="522.409737866" xlink:href="#m0671b201fa" y="218.853931065"/>
     <use style="fill:#008000;fill-opacity:0.6;stroke:#008000;stroke-opacity:0.6;stroke-width:0.3;" x="636.680920734" xlink:href="#m0671b201fa" y="133.157996879"/>
     <use style="fill:#008000;fill-opacity:0.6;stroke:#008000;stroke-opacity:0.6;stroke-width:0.3;" x="498.134152431" xlink:href="#m0671b201fa" y="242.031875832"/>
     <use style="fill:#008000;fill-opacity:0.6;stroke:#008000;stroke-opacity:0.6;stroke-width:0.3;" x="495.337155133" xlink:href="#m0671b201fa" y="246.679776725"/>
     <use style="fill:#008000;fill-opacity:0.6;stroke:#008000;stroke-opacity:0.6;stroke-width:0.3;" x="504.397577701" xlink:href="#m0671b201fa" y="243.130815648"/>
     <use style="fill:#008000;fill-opacity:0.6;stroke:#008000;stroke-opacity:0.6;stroke-width:0.3;" x="475.397731089" xlink:href="#m0671b201fa" y="85.5833423663"/>
     <use style="fill:#008000;fill-opacity:0.6;stroke:#008000;stroke-opacity:0.6;stroke-width:0.3;" x="568.382085524" xlink:href="#m0671b201fa" y="330.091457548"/>
     <use style="fill:#008000;fill-opacity:0.6;stroke:#008000;stroke-opacity:0.6;stroke-width:0.3;" x="495.788164925" xlink:href="#m0671b201fa" y="365.569152724"/>
     <use style="fill:#008000;fill-opacity:0.6;stroke:#008000;stroke-opacity:0.6;stroke-width:0.3;" x="490.04492" xlink:href="#m0671b201fa" y="251.651467592"/>
     <use style="fill:#008000;fill-opacity:0.6;stroke:#008000;stroke-opacity:0.6;stroke-width:0.3;" x="534.452124129" xlink:href="#m0671b201fa" y="198.475278272"/>
     <use style="fill:#008000;fill-opacity:0.6;stroke:#008000;stroke-opacity:0.6;stroke-width:0.3;" x="531.54855297" xlink:href="#m0671b201fa" y="339.205767272"/>
     <use style="fill:#008000;fill-opacity:0.6;stroke:#008000;stroke-opacity:0.6;stroke-width:0.3;" x="505.52396657" xlink:href="#m0671b201fa" y="257.726217487"/>
     <use style="fill:#008000;fill-opacity:0.6;stroke:#008000;stroke-opacity:0.6;stroke-width:0.3;" x="541.407711396" xlink:href="#m0671b201fa" y="158.098494043"/>
     <use style="fill:#008000;fill-opacity:0.6;stroke:#008000;stroke-opacity:0.6;stroke-width:0.3;" x="435.198070802" xlink:href="#m0671b201fa" y="284.646749803"/>
     <use style="fill:#008000;fill-opacity:0.6;stroke:#008000;stroke-opacity:0.6;stroke-width:0.3;" x="474.90521099" xlink:href="#m0671b201fa" y="121.961522126"/>
     <use style="fill:#008000;fill-opacity:0.6;stroke:#008000;stroke-opacity:0.6;stroke-width:0.3;" x="634.961505679" xlink:href="#m0671b201fa" y="255.081239779"/>
     <use style="fill:#008000;fill-opacity:0.6;stroke:#008000;stroke-opacity:0.6;stroke-width:0.3;" x="563.924224978" xlink:href="#m0671b201fa" y="284.05311816"/>
     <use style="fill:#008000;fill-opacity:0.6;stroke:#008000;stroke-opacity:0.6;stroke-width:0.3;" x="631.650702407" xlink:href="#m0671b201fa" y="253.411900006"/>
     <use style="fill:#008000;fill-opacity:0.6;stroke:#008000;stroke-opacity:0.6;stroke-width:0.3;" x="616.011969755" xlink:href="#m0671b201fa" y="273.310339992"/>
     <use style="fill:#008000;fill-opacity:0.6;stroke:#008000;stroke-opacity:0.6;stroke-width:0.3;" x="513.740022197" xlink:href="#m0671b201fa" y="258.314637703"/>
     <use style="fill:#008000;fill-opacity:0.6;stroke:#008000;stroke-opacity:0.6;stroke-width:0.3;" x="635.809501716" xlink:href="#m0671b201fa" y="272.78049062"/>
    </g>
   </g>
   <g id="PathCollection_3">
    <defs>
     <path d="M 0 2.236068 
C 0.593012 2.236068 1.161816 2.000462 1.581139 1.581139 
C 2.000462 1.161816 2.236068 0.593012 2.236068 0 
C 2.236068 -0.593012 2.000462 -1.161816 1.581139 -1.581139 
C 1.161816 -2.000462 0.593012 -2.236068 0 -2.236068 
C -0.593012 -2.236068 -1.161816 -2.000462 -1.581139 -1.581139 
C -2.000462 -1.161816 -2.236068 -0.593012 -2.236068 0 
C -2.236068 0.593012 -2.000462 1.161816 -1.581139 1.581139 
C -1.161816 2.000462 -0.593012 2.236068 0 2.236068 
z
" id="me635ddd46e" style="stroke:#ff0000;stroke-opacity:0.6;stroke-width:0.3;"/>
    </defs>
    <g clip-path="url(#p87232e1df2)">
     <use style="fill:#ff0000;fill-opacity:0.6;stroke:#ff0000;stroke-opacity:0.6;stroke-width:0.3;" x="304.6067415" xlink:href="#me635ddd46e" y="622.347911673"/>
     <use style="fill:#ff0000;fill-opacity:0.6;stroke:#ff0000;stroke-opacity:0.6;stroke-width:0.3;" x="262.097149084" xlink:href="#me635ddd46e" y="504.132379602"/>
     <use style="fill:#ff0000;fill-opacity:0.6;stroke:#ff0000;stroke-opacity:0.6;stroke-width:0.3;" x="280.498509295" xlink:href="#me635ddd46e" y="496.321271999"/>
     <use style="fill:#ff0000;fill-opacity:0.6;stroke:#ff0000;stroke-opacity:0.6;stroke-width:0.3;" x="210.991365212" xlink:href="#me635ddd46e" y="621.890369057"/>
     <use style="fill:#ff0000;fill-opacity:0.6;stroke:#ff0000;stroke-opacity:0.6;stroke-width:0.3;" x="199.644576502" xlink:href="#me635ddd46e" y="510.671321662"/>
     <use style="fill:#ff0000;fill-opacity:0.6;stroke:#ff0000;stroke-opacity:0.6;stroke-width:0.3;" x="208.113381632" xlink:href="#me635ddd46e" y="481.954790714"/>
     <use style="fill:#ff0000;fill-opacity:0.6;stroke:#ff0000;stroke-opacity:0.6;stroke-width:0.3;" x="111.134394883" xlink:href="#me635ddd46e" y="639.710873749"/>
     <use style="fill:#ff0000;fill-opacity:0.6;stroke:#ff0000;stroke-opacity:0.6;stroke-width:0.3;" x="134.121406796" xlink:href="#me635ddd46e" y="390.342760832"/>
     <use style="fill:#ff0000;fill-opacity:0.6;stroke:#ff0000;stroke-opacity:0.6;stroke-width:0.3;" x="233.948559552" xlink:href="#me635ddd46e" y="527.881768043"/>
     <use style="fill:#ff0000;fill-opacity:0.6;stroke:#ff0000;stroke-opacity:0.6;stroke-width:0.3;" x="205.603724219" xlink:href="#me635ddd46e" y="511.935503684"/>
     <use style="fill:#ff0000;fill-opacity:0.6;stroke:#ff0000;stroke-opacity:0.6;stroke-width:0.3;" x="169.880501359" xlink:href="#me635ddd46e" y="487.927612143"/>
     <use style="fill:#ff0000;fill-opacity:0.6;stroke:#ff0000;stroke-opacity:0.6;stroke-width:0.3;" x="282.524225912" xlink:href="#me635ddd46e" y="442.847507506"/>
     <use style="fill:#ff0000;fill-opacity:0.6;stroke:#ff0000;stroke-opacity:0.6;stroke-width:0.3;" x="137.364599627" xlink:href="#me635ddd46e" y="515.283759158"/>
     <use style="fill:#ff0000;fill-opacity:0.6;stroke:#ff0000;stroke-opacity:0.6;stroke-width:0.3;" x="149.832298062" xlink:href="#me635ddd46e" y="458.900493666"/>
     <use style="fill:#ff0000;fill-opacity:0.6;stroke:#ff0000;stroke-opacity:0.6;stroke-width:0.3;" x="166.898435676" xlink:href="#me635ddd46e" y="478.866822324"/>
     <use style="fill:#ff0000;fill-opacity:0.6;stroke:#ff0000;stroke-opacity:0.6;stroke-width:0.3;" x="243.333494925" xlink:href="#me635ddd46e" y="479.100948595"/>
     <use style="fill:#ff0000;fill-opacity:0.6;stroke:#ff0000;stroke-opacity:0.6;stroke-width:0.3;" x="192.730604525" xlink:href="#me635ddd46e" y="452.268757095"/>
     <use style="fill:#ff0000;fill-opacity:0.6;stroke:#ff0000;stroke-opacity:0.6;stroke-width:0.3;" x="250.555857754" xlink:href="#me635ddd46e" y="449.782273222"/>
     <use style="fill:#ff0000;fill-opacity:0.6;stroke:#ff0000;stroke-opacity:0.6;stroke-width:0.3;" x="219.469406585" xlink:href="#me635ddd46e" y="492.016645236"/>
     <use style="fill:#ff0000;fill-opacity:0.6;stroke:#ff0000;stroke-opacity:0.6;stroke-width:0.3;" x="251.517441452" xlink:href="#me635ddd46e" y="458.598978166"/>
     <use style="fill:#ff0000;fill-opacity:0.6;stroke:#ff0000;stroke-opacity:0.6;stroke-width:0.3;" x="265.860334892" xlink:href="#me635ddd46e" y="523.446263234"/>
     <use style="fill:#ff0000;fill-opacity:0.6;stroke:#ff0000;stroke-opacity:0.6;stroke-width:0.3;" x="252.562578245" xlink:href="#me635ddd46e" y="465.206789953"/>
     <use style="fill:#ff0000;fill-opacity:0.6;stroke:#ff0000;stroke-opacity:0.6;stroke-width:0.3;" x="200.289426846" xlink:href="#me635ddd46e" y="482.150991024"/>
     <use style="fill:#ff0000;fill-opacity:0.6;stroke:#ff0000;stroke-opacity:0.6;stroke-width:0.3;" x="199.146561911" xlink:href="#me635ddd46e" y="482.451186619"/>
     <use style="fill:#ff0000;fill-opacity:0.6;stroke:#ff0000;stroke-opacity:0.6;stroke-width:0.3;" x="238.789817256" xlink:href="#me635ddd46e" y="441.35256548"/>
     <use style="fill:#ff0000;fill-opacity:0.6;stroke:#ff0000;stroke-opacity:0.6;stroke-width:0.3;" x="224.613806135" xlink:href="#me635ddd46e" y="617.660366242"/>
     <use style="fill:#ff0000;fill-opacity:0.6;stroke:#ff0000;stroke-opacity:0.6;stroke-width:0.3;" x="176.311390358" xlink:href="#me635ddd46e" y="450.773770186"/>
     <use style="fill:#ff0000;fill-opacity:0.6;stroke:#ff0000;stroke-opacity:0.6;stroke-width:0.3;" x="178.079861922" xlink:href="#me635ddd46e" y="393.229921238"/>
     <use style="fill:#ff0000;fill-opacity:0.6;stroke:#ff0000;stroke-opacity:0.6;stroke-width:0.3;" x="127.291048974" xlink:href="#me635ddd46e" y="575.586823107"/>
     <use style="fill:#ff0000;fill-opacity:0.6;stroke:#ff0000;stroke-opacity:0.6;stroke-width:0.3;" x="243.404353351" xlink:href="#me635ddd46e" y="462.30562579"/>
     <use style="fill:#ff0000;fill-opacity:0.6;stroke:#ff0000;stroke-opacity:0.6;stroke-width:0.3;" x="297.676400299" xlink:href="#me635ddd46e" y="542.690102599"/>
     <use style="fill:#ff0000;fill-opacity:0.6;stroke:#ff0000;stroke-opacity:0.6;stroke-width:0.3;" x="321.719883136" xlink:href="#me635ddd46e" y="508.081843369"/>
     <use style="fill:#ff0000;fill-opacity:0.6;stroke:#ff0000;stroke-opacity:0.6;stroke-width:0.3;" x="262.898593561" xlink:href="#me635ddd46e" y="473.992412965"/>
     <use style="fill:#ff0000;fill-opacity:0.6;stroke:#ff0000;stroke-opacity:0.6;stroke-width:0.3;" x="267.232182497" xlink:href="#me635ddd46e" y="484.29918334"/>
     <use style="fill:#ff0000;fill-opacity:0.6;stroke:#ff0000;stroke-opacity:0.6;stroke-width:0.3;" x="343.226145315" xlink:href="#me635ddd46e" y="479.507550843"/>
     <use style="fill:#ff0000;fill-opacity:0.6;stroke:#ff0000;stroke-opacity:0.6;stroke-width:0.3;" x="306.51160008" xlink:href="#me635ddd46e" y="416.674708713"/>
     <use style="fill:#ff0000;fill-opacity:0.6;stroke:#ff0000;stroke-opacity:0.6;stroke-width:0.3;" x="201.136085341" xlink:href="#me635ddd46e" y="480.262935357"/>
     <use style="fill:#ff0000;fill-opacity:0.6;stroke:#ff0000;stroke-opacity:0.6;stroke-width:0.3;" x="261.831839287" xlink:href="#me635ddd46e" y="527.185813734"/>
     <use style="fill:#ff0000;fill-opacity:0.6;stroke:#ff0000;stroke-opacity:0.6;stroke-width:0.3;" x="220.947153695" xlink:href="#me635ddd46e" y="502.433620148"/>
     <use style="fill:#ff0000;fill-opacity:0.6;stroke:#ff0000;stroke-opacity:0.6;stroke-width:0.3;" x="212.185884173" xlink:href="#me635ddd46e" y="595.277197992"/>
     <use style="fill:#ff0000;fill-opacity:0.6;stroke:#ff0000;stroke-opacity:0.6;stroke-width:0.3;" x="114.529033151" xlink:href="#me635ddd46e" y="500.985329414"/>
     <use style="fill:#ff0000;fill-opacity:0.6;stroke:#ff0000;stroke-opacity:0.6;stroke-width:0.3;" x="369.428311334" xlink:href="#me635ddd46e" y="436.907120056"/>
     <use style="fill:#ff0000;fill-opacity:0.6;stroke:#ff0000;stroke-opacity:0.6;stroke-width:0.3;" x="300.880778307" xlink:href="#me635ddd46e" y="453.453315917"/>
     <use style="fill:#ff0000;fill-opacity:0.6;stroke:#ff0000;stroke-opacity:0.6;stroke-width:0.3;" x="135.165619164" xlink:href="#me635ddd46e" y="466.554255272"/>
     <use style="fill:#ff0000;fill-opacity:0.6;stroke:#ff0000;stroke-opacity:0.6;stroke-width:0.3;" x="213.209394395" xlink:href="#me635ddd46e" y="408.502255793"/>
     <use style="fill:#ff0000;fill-opacity:0.6;stroke:#ff0000;stroke-opacity:0.6;stroke-width:0.3;" x="216.393096448" xlink:href="#me635ddd46e" y="514.199018956"/>
     <use style="fill:#ff0000;fill-opacity:0.6;stroke:#ff0000;stroke-opacity:0.6;stroke-width:0.3;" x="179.553864371" xlink:href="#me635ddd46e" y="531.361442756"/>
     <use style="fill:#ff0000;fill-opacity:0.6;stroke:#ff0000;stroke-opacity:0.6;stroke-width:0.3;" x="328.143572508" xlink:href="#me635ddd46e" y="577.321784042"/>
     <use style="fill:#ff0000;fill-opacity:0.6;stroke:#ff0000;stroke-opacity:0.6;stroke-width:0.3;" x="349.25490778" xlink:href="#me635ddd46e" y="466.578730582"/>
     <use style="fill:#ff0000;fill-opacity:0.6;stroke:#ff0000;stroke-opacity:0.6;stroke-width:0.3;" x="217.885008036" xlink:href="#me635ddd46e" y="508.981339166"/>
    </g>
   </g>
   <g id="line2d_31">
    <path clip-path="url(#p87232e1df2)" d="M 90 353.891372 
L 101.387755 355.970169 
L 112.77551 358.048967 
L 124.163265 360.127764 
L 135.55102 362.206561 
L 146.938776 364.285359 
L 158.326531 366.364156 
L 169.714286 368.442954 
L 181.102041 370.521751 
L 192.489796 372.600548 
L 203.877551 374.679346 
L 215.265306 376.758143 
L 226.653061 378.836941 
L 238.040816 380.915738 
L 249.428571 382.994535 
L 260.816327 385.073333 
L 272.204082 387.15213 
L 283.591837 389.230928 
L 294.979592 391.309725 
L 306.367347 393.388522 
L 317.755102 395.46732 
L 329.142857 397.546117 
L 340.530612 399.624915 
L 351.918367 401.703712 
L 363.306122 403.782509 
L 374.693878 405.861307 
L 386.081633 407.940104 
L 397.469388 410.018901 
L 408.857143 412.097699 
L 420.244898 414.176496 
L 431.632653 416.255294 
L 443.020408 418.334091 
L 454.408163 420.412888 
L 465.795918 422.491686 
L 477.183673 424.570483 
L 488.571429 426.649281 
L 499.959184 428.728078 
L 511.346939 430.806875 
L 522.734694 432.885673 
L 534.122449 434.96447 
L 545.510204 437.043268 
L 556.897959 439.122065 
L 568.285714 441.200862 
L 579.673469 443.27966 
L 591.061224 445.358457 
L 602.44898 447.437255 
L 613.836735 449.516052 
L 625.22449 451.594849 
L 636.612245 453.673647 
L 648 455.752444 
" style="fill:none;opacity:0.6;stroke:#0000ff;stroke-linecap:round;stroke-width:1.75;"/>
   </g>
   <g id="line2d_32">
    <path clip-path="url(#p87232e1df2)" d="M 90 330.635239 
L 101.387755 332.714036 
L 112.77551 334.792833 
L 124.163265 336.871631 
L 135.55102 338.950428 
L 146.938776 341.029226 
L 158.326531 343.108023 
L 169.714286 345.18682 
L 181.102041 347.265618 
L 192.489796 349.344415 
L 203.877551 351.423213 
L 215.265306 353.50201 
L 226.653061 355.580807 
L 238.040816 357.659605 
L 249.428571 359.738402 
L 260.816327 361.8172 
L 272.204082 363.895997 
L 283.591837 365.974794 
L 294.979592 368.053592 
L 306.367347 370.132389 
L 317.755102 372.211187 
L 329.142857 374.289984 
L 340.530612 376.368781 
L 351.918367 378.447579 
L 363.306122 380.526376 
L 374.693878 382.605174 
L 386.081633 384.683971 
L 397.469388 386.762768 
L 408.857143 388.841566 
L 420.244898 390.920363 
L 431.632653 392.999161 
L 443.020408 395.077958 
L 454.408163 397.156755 
L 465.795918 399.235553 
L 477.183673 401.31435 
L 488.571429 403.393148 
L 499.959184 405.471945 
L 511.346939 407.550742 
L 522.734694 409.62954 
L 534.122449 411.708337 
L 545.510204 413.787135 
L 556.897959 415.865932 
L 568.285714 417.944729 
L 579.673469 420.023527 
L 591.061224 422.102324 
L 602.44898 424.181122 
L 613.836735 426.259919 
L 625.22449 428.338716 
L 636.612245 430.417514 
L 648 432.496311 
" style="fill:none;opacity:0.3;stroke:#0000ff;stroke-dasharray:6.000000,6.000000;stroke-dashoffset:0.0;stroke-width:1.75;"/>
   </g>
   <g id="line2d_33">
    <path clip-path="url(#p87232e1df2)" d="M 90 377.147505 
L 101.387755 379.226302 
L 112.77551 381.3051 
L 124.163265 383.383897 
L 135.55102 385.462694 
L 146.938776 387.541492 
L 158.326531 389.620289 
L 169.714286 391.699087 
L 181.102041 393.777884 
L 192.489796 395.856681 
L 203.877551 397.935479 
L 215.265306 400.014276 
L 226.653061 402.093074 
L 238.040816 404.171871 
L 249.428571 406.250668 
L 260.816327 408.329466 
L 272.204082 410.408263 
L 283.591837 412.487061 
L 294.979592 414.565858 
L 306.367347 416.644655 
L 317.755102 418.723453 
L 329.142857 420.80225 
L 340.530612 422.881048 
L 351.918367 424.959845 
L 363.306122 427.038642 
L 374.693878 429.11744 
L 386.081633 431.196237 
L 397.469388 433.275035 
L 408.857143 435.353832 
L 420.244898 437.432629 
L 431.632653 439.511427 
L 443.020408 441.590224 
L 454.408163 443.669022 
L 465.795918 445.747819 
L 477.183673 447.826616 
L 488.571429 449.905414 
L 499.959184 451.984211 
L 511.346939 454.063009 
L 522.734694 456.141806 
L 534.122449 458.220603 
L 545.510204 460.299401 
L 556.897959 462.378198 
L 568.285714 464.456996 
L 579.673469 466.535793 
L 591.061224 468.61459 
L 602.44898 470.693388 
L 613.836735 472.772185 
L 625.22449 474.850983 
L 636.612245 476.92978 
L 648 479.008577 
" style="fill:none;opacity:0.3;stroke:#0000ff;stroke-dasharray:6.000000,6.000000;stroke-dashoffset:0.0;stroke-width:1.75;"/>
   </g>
   <g id="patch_3">
    <path d="M 90 72 
L 648 72 
" style="fill:none;"/>
   </g>
   <g id="patch_4">
    <path d="M 648 630 
L 648 72 
" style="fill:none;"/>
   </g>
   <g id="patch_5">
    <path d="M 90 630 
L 648 630 
" style="fill:none;"/>
   </g>
   <g id="patch_6">
    <path d="M 90 630 
L 90 72 
" style="fill:none;"/>
   </g>
  </g>
 </g>
 <defs>
  <clipPath id="p87232e1df2">
   <rect height="558.0" width="558.0" x="90.0" y="72.0"/>
  </clipPath>
 </defs>
</svg>
