<?xml version="1.0" encoding="utf-8" standalone="no"?>
<!DOCTYPE svg PUBLIC "-//W3C//DTD SVG 1.1//EN"
  "http://www.w3.org/Graphics/SVG/1.1/DTD/svg11.dtd">
<!-- Created with matplotlib (http://matplotlib.org/) -->
<svg height="720pt" version="1.1" viewBox="0 0 720 720" width="720pt" xmlns="http://www.w3.org/2000/svg" xmlns:xlink="http://www.w3.org/1999/xlink">
 <defs>
  <style type="text/css">
*{stroke-linecap:butt;stroke-linejoin:round;stroke-miterlimit:100000;}
  </style>
 </defs>
 <g id="figure_1">
  <g id="patch_1">
   <path d="M 0 720 
L 720 720 
L 720 0 
L 0 0 
z
" style="fill:#ffffff;"/>
  </g>
  <g id="axes_1">
   <g id="patch_2">
    <path d="M 90 630 
L 648 630 
L 648 72 
L 90 72 
z
" style="fill:#eaeaf2;"/>
   </g>
   <g id="matplotlib.axis_1">
    <g id="xtick_1">
     <g id="line2d_1">
      <path clip-path="url(#p40018bc733)" d="M 90 630 
L 90 72 
" style="fill:none;stroke:#ffffff;stroke-linecap:round;"/>
     </g>
     <g id="line2d_2">
      <defs>
       <path d="M 0 0 
L 0 0 
" id="m446cc5947b" style="stroke:#262626;"/>
      </defs>
      <g>
       <use style="fill:#262626;stroke:#262626;" x="90.0" xlink:href="#m446cc5947b" y="630.0"/>
      </g>
     </g>
     <g id="line2d_3">
      <g>
       <use style="fill:#262626;stroke:#262626;" x="90.0" xlink:href="#m446cc5947b" y="72.0"/>
      </g>
     </g>
     <g id="text_1">
      <!-- −10 -->
      <defs>
       <path d="M 4.9375 29.6875 
L 4.9375 36.8125 
L 53.515625 36.8125 
L 53.515625 29.6875 
z
" id="LiberationSans-2212"/>
       <path d="M 7.625 0 
L 7.625 7.46875 
L 25.140625 7.46875 
L 25.140625 60.40625 
L 9.625 49.3125 
L 9.625 57.625 
L 25.875 68.796875 
L 33.984375 68.796875 
L 33.984375 7.46875 
L 50.734375 7.46875 
L 50.734375 0 
z
" id="LiberationSans-31"/>
       <path d="M 51.703125 34.421875 
Q 51.703125 24.515625 49.828125 17.75 
Q 47.953125 10.984375 44.703125 6.8125 
Q 41.453125 2.640625 37.0625 0.828125 
Q 32.671875 -0.984375 27.6875 -0.984375 
Q 22.65625 -0.984375 18.3125 0.828125 
Q 13.96875 2.640625 10.765625 6.78125 
Q 7.5625 10.9375 5.734375 17.703125 
Q 3.90625 24.46875 3.90625 34.421875 
Q 3.90625 44.828125 5.734375 51.640625 
Q 7.5625 58.453125 10.78125 62.5 
Q 14.015625 66.546875 18.40625 68.1875 
Q 22.796875 69.828125 27.984375 69.828125 
Q 32.90625 69.828125 37.21875 68.1875 
Q 41.546875 66.546875 44.765625 62.5 
Q 48 58.453125 49.84375 51.640625 
Q 51.703125 44.828125 51.703125 34.421875 
M 42.78125 34.421875 
Q 42.78125 42.625 41.796875 48.0625 
Q 40.828125 53.515625 38.921875 56.765625 
Q 37.015625 60.015625 34.25 61.359375 
Q 31.5 62.703125 27.984375 62.703125 
Q 24.265625 62.703125 21.4375 61.328125 
Q 18.609375 59.96875 16.671875 56.71875 
Q 14.75 53.46875 13.765625 48.015625 
Q 12.796875 42.578125 12.796875 34.421875 
Q 12.796875 26.515625 13.796875 21.09375 
Q 14.796875 15.671875 16.71875 12.375 
Q 18.65625 9.078125 21.4375 7.640625 
Q 24.21875 6.203125 27.78125 6.203125 
Q 31.25 6.203125 34.03125 7.640625 
Q 36.8125 9.078125 38.734375 12.375 
Q 40.671875 15.671875 41.71875 21.09375 
Q 42.78125 26.515625 42.78125 34.421875 
" id="LiberationSans-30"/>
      </defs>
      <g style="fill:#262626;" transform="translate(81.51875 644.246875)scale(0.1 -0.1)">
       <use xlink:href="#LiberationSans-2212"/>
       <use x="58.3984375" xlink:href="#LiberationSans-31"/>
       <use x="114.013671875" xlink:href="#LiberationSans-30"/>
      </g>
     </g>
    </g>
    <g id="xtick_2">
     <g id="line2d_4">
      <path clip-path="url(#p40018bc733)" d="M 229.5 630 
L 229.5 72 
" style="fill:none;stroke:#ffffff;stroke-linecap:round;"/>
     </g>
     <g id="line2d_5">
      <g>
       <use style="fill:#262626;stroke:#262626;" x="229.5" xlink:href="#m446cc5947b" y="630.0"/>
      </g>
     </g>
     <g id="line2d_6">
      <g>
       <use style="fill:#262626;stroke:#262626;" x="229.5" xlink:href="#m446cc5947b" y="72.0"/>
      </g>
     </g>
     <g id="text_2">
      <!-- −5 -->
      <defs>
       <path d="M 51.421875 22.40625 
Q 51.421875 17.234375 49.859375 12.9375 
Q 48.296875 8.640625 45.21875 5.53125 
Q 42.140625 2.4375 37.578125 0.71875 
Q 33.015625 -0.984375 27 -0.984375 
Q 21.578125 -0.984375 17.546875 0.28125 
Q 13.53125 1.5625 10.734375 3.78125 
Q 7.953125 6 6.3125 8.984375 
Q 4.6875 11.96875 4 15.375 
L 12.890625 16.40625 
Q 13.421875 14.453125 14.390625 12.625 
Q 15.375 10.796875 17.0625 9.34375 
Q 18.75 7.90625 21.21875 7.046875 
Q 23.6875 6.203125 27.203125 6.203125 
Q 30.609375 6.203125 33.390625 7.25 
Q 36.1875 8.296875 38.15625 10.34375 
Q 40.140625 12.40625 41.203125 15.375 
Q 42.28125 18.359375 42.28125 22.21875 
Q 42.28125 25.390625 41.25 28.046875 
Q 40.234375 30.71875 38.328125 32.640625 
Q 36.421875 34.578125 33.65625 35.640625 
Q 30.90625 36.71875 27.390625 36.71875 
Q 25.203125 36.71875 23.34375 36.328125 
Q 21.484375 35.9375 19.890625 35.25 
Q 18.3125 34.578125 17.015625 33.671875 
Q 15.71875 32.765625 14.59375 31.78125 
L 6 31.78125 
L 8.296875 68.796875 
L 47.40625 68.796875 
L 47.40625 61.328125 
L 16.3125 61.328125 
L 14.984375 39.5 
Q 17.328125 41.3125 20.84375 42.59375 
Q 24.359375 43.890625 29.203125 43.890625 
Q 34.328125 43.890625 38.421875 42.328125 
Q 42.53125 40.765625 45.40625 37.90625 
Q 48.296875 35.0625 49.859375 31.109375 
Q 51.421875 27.15625 51.421875 22.40625 
" id="LiberationSans-35"/>
      </defs>
      <g style="fill:#262626;" transform="translate(223.79921875 644.246875)scale(0.1 -0.1)">
       <use xlink:href="#LiberationSans-2212"/>
       <use x="58.3984375" xlink:href="#LiberationSans-35"/>
      </g>
     </g>
    </g>
    <g id="xtick_3">
     <g id="line2d_7">
      <path clip-path="url(#p40018bc733)" d="M 369 630 
L 369 72 
" style="fill:none;stroke:#ffffff;stroke-linecap:round;"/>
     </g>
     <g id="line2d_8">
      <g>
       <use style="fill:#262626;stroke:#262626;" x="369.0" xlink:href="#m446cc5947b" y="630.0"/>
      </g>
     </g>
     <g id="line2d_9">
      <g>
       <use style="fill:#262626;stroke:#262626;" x="369.0" xlink:href="#m446cc5947b" y="72.0"/>
      </g>
     </g>
     <g id="text_3">
      <!-- 0 -->
      <g style="fill:#262626;" transform="translate(366.21953125 644.246875)scale(0.1 -0.1)">
       <use xlink:href="#LiberationSans-30"/>
      </g>
     </g>
    </g>
    <g id="xtick_4">
     <g id="line2d_10">
      <path clip-path="url(#p40018bc733)" d="M 508.5 630 
L 508.5 72 
" style="fill:none;stroke:#ffffff;stroke-linecap:round;"/>
     </g>
     <g id="line2d_11">
      <g>
       <use style="fill:#262626;stroke:#262626;" x="508.5" xlink:href="#m446cc5947b" y="630.0"/>
      </g>
     </g>
     <g id="line2d_12">
      <g>
       <use style="fill:#262626;stroke:#262626;" x="508.5" xlink:href="#m446cc5947b" y="72.0"/>
      </g>
     </g>
     <g id="text_4">
      <!-- 5 -->
      <g style="fill:#262626;" transform="translate(505.71953125 644.246875)scale(0.1 -0.1)">
       <use xlink:href="#LiberationSans-35"/>
      </g>
     </g>
    </g>
    <g id="xtick_5">
     <g id="line2d_13">
      <path clip-path="url(#p40018bc733)" d="M 648 630 
L 648 72 
" style="fill:none;stroke:#ffffff;stroke-linecap:round;"/>
     </g>
     <g id="line2d_14">
      <g>
       <use style="fill:#262626;stroke:#262626;" x="648.0" xlink:href="#m446cc5947b" y="630.0"/>
      </g>
     </g>
     <g id="line2d_15">
      <g>
       <use style="fill:#262626;stroke:#262626;" x="648.0" xlink:href="#m446cc5947b" y="72.0"/>
      </g>
     </g>
     <g id="text_5">
      <!-- 10 -->
      <g style="fill:#262626;" transform="translate(642.4390625 644.246875)scale(0.1 -0.1)">
       <use xlink:href="#LiberationSans-31"/>
       <use x="55.615234375" xlink:href="#LiberationSans-30"/>
      </g>
     </g>
    </g>
    <g id="text_6">
     <!-- x1 -->
     <defs>
      <path d="M 39.109375 0 
L 24.90625 21.6875 
L 10.59375 0 
L 1.125 0 
L 19.921875 27.15625 
L 2 52.828125 
L 11.71875 52.828125 
L 24.90625 32.28125 
L 37.984375 52.828125 
L 47.796875 52.828125 
L 29.890625 27.25 
L 48.921875 0 
z
" id="LiberationSans-78"/>
     </defs>
     <g style="fill:#262626;" transform="translate(359.49515625 664.36625)scale(0.18 -0.18)">
      <use xlink:href="#LiberationSans-78"/>
      <use x="50.0" xlink:href="#LiberationSans-31"/>
     </g>
    </g>
   </g>
   <g id="matplotlib.axis_2">
    <g id="ytick_1">
     <g id="line2d_16">
      <path clip-path="url(#p40018bc733)" d="M 90 630 
L 648 630 
" style="fill:none;stroke:#ffffff;stroke-linecap:round;"/>
     </g>
     <g id="line2d_17">
      <g>
       <use style="fill:#262626;stroke:#262626;" x="90.0" xlink:href="#m446cc5947b" y="630.0"/>
      </g>
     </g>
     <g id="line2d_18">
      <g>
       <use style="fill:#262626;stroke:#262626;" x="648.0" xlink:href="#m446cc5947b" y="630.0"/>
      </g>
     </g>
     <g id="text_7">
      <!-- −10 -->
      <g style="fill:#262626;" transform="translate(66.0375 632.5859375)scale(0.1 -0.1)">
       <use xlink:href="#LiberationSans-2212"/>
       <use x="58.3984375" xlink:href="#LiberationSans-31"/>
       <use x="114.013671875" xlink:href="#LiberationSans-30"/>
      </g>
     </g>
    </g>
    <g id="ytick_2">
     <g id="line2d_19">
      <path clip-path="url(#p40018bc733)" d="M 90 490.5 
L 648 490.5 
" style="fill:none;stroke:#ffffff;stroke-linecap:round;"/>
     </g>
     <g id="line2d_20">
      <g>
       <use style="fill:#262626;stroke:#262626;" x="90.0" xlink:href="#m446cc5947b" y="490.5"/>
      </g>
     </g>
     <g id="line2d_21">
      <g>
       <use style="fill:#262626;stroke:#262626;" x="648.0" xlink:href="#m446cc5947b" y="490.5"/>
      </g>
     </g>
     <g id="text_8">
      <!-- −5 -->
      <g style="fill:#262626;" transform="translate(71.5984375 493.0859375)scale(0.1 -0.1)">
       <use xlink:href="#LiberationSans-2212"/>
       <use x="58.3984375" xlink:href="#LiberationSans-35"/>
      </g>
     </g>
    </g>
    <g id="ytick_3">
     <g id="line2d_22">
      <path clip-path="url(#p40018bc733)" d="M 90 351 
L 648 351 
" style="fill:none;stroke:#ffffff;stroke-linecap:round;"/>
     </g>
     <g id="line2d_23">
      <g>
       <use style="fill:#262626;stroke:#262626;" x="90.0" xlink:href="#m446cc5947b" y="351.0"/>
      </g>
     </g>
     <g id="line2d_24">
      <g>
       <use style="fill:#262626;stroke:#262626;" x="648.0" xlink:href="#m446cc5947b" y="351.0"/>
      </g>
     </g>
     <g id="text_9">
      <!-- 0 -->
      <g style="fill:#262626;" transform="translate(77.4390625 353.5859375)scale(0.1 -0.1)">
       <use xlink:href="#LiberationSans-30"/>
      </g>
     </g>
    </g>
    <g id="ytick_4">
     <g id="line2d_25">
      <path clip-path="url(#p40018bc733)" d="M 90 211.5 
L 648 211.5 
" style="fill:none;stroke:#ffffff;stroke-linecap:round;"/>
     </g>
     <g id="line2d_26">
      <g>
       <use style="fill:#262626;stroke:#262626;" x="90.0" xlink:href="#m446cc5947b" y="211.5"/>
      </g>
     </g>
     <g id="line2d_27">
      <g>
       <use style="fill:#262626;stroke:#262626;" x="648.0" xlink:href="#m446cc5947b" y="211.5"/>
      </g>
     </g>
     <g id="text_10">
      <!-- 5 -->
      <g style="fill:#262626;" transform="translate(77.4390625 214.0859375)scale(0.1 -0.1)">
       <use xlink:href="#LiberationSans-35"/>
      </g>
     </g>
    </g>
    <g id="ytick_5">
     <g id="line2d_28">
      <path clip-path="url(#p40018bc733)" d="M 90 72 
L 648 72 
" style="fill:none;stroke:#ffffff;stroke-linecap:round;"/>
     </g>
     <g id="line2d_29">
      <g>
       <use style="fill:#262626;stroke:#262626;" x="90.0" xlink:href="#m446cc5947b" y="72.0"/>
      </g>
     </g>
     <g id="line2d_30">
      <g>
       <use style="fill:#262626;stroke:#262626;" x="648.0" xlink:href="#m446cc5947b" y="72.0"/>
      </g>
     </g>
     <g id="text_11">
      <!-- 10 -->
      <g style="fill:#262626;" transform="translate(71.878125 74.5859375)scale(0.1 -0.1)">
       <use xlink:href="#LiberationSans-31"/>
       <use x="55.615234375" xlink:href="#LiberationSans-30"/>
      </g>
     </g>
    </g>
    <g id="text_12">
     <!-- x2 -->
     <defs>
      <path d="M 5.03125 0 
L 5.03125 6.203125 
Q 7.515625 11.921875 11.109375 16.28125 
Q 14.703125 20.65625 18.65625 24.1875 
Q 22.609375 27.734375 26.484375 30.765625 
Q 30.375 33.796875 33.5 36.8125 
Q 36.625 39.84375 38.546875 43.15625 
Q 40.484375 46.484375 40.484375 50.6875 
Q 40.484375 53.609375 39.59375 55.828125 
Q 38.71875 58.0625 37.0625 59.5625 
Q 35.40625 61.078125 33.078125 61.828125 
Q 30.765625 62.59375 27.9375 62.59375 
Q 25.296875 62.59375 22.96875 61.859375 
Q 20.65625 61.140625 18.84375 59.671875 
Q 17.046875 58.203125 15.890625 56.03125 
Q 14.75 53.859375 14.40625 50.984375 
L 5.421875 51.8125 
Q 5.859375 55.515625 7.46875 58.78125 
Q 9.078125 62.0625 11.90625 64.53125 
Q 14.75 67 18.71875 68.40625 
Q 22.703125 69.828125 27.9375 69.828125 
Q 33.0625 69.828125 37.0625 68.609375 
Q 41.0625 67.390625 43.8125 64.984375 
Q 46.578125 62.59375 48.046875 59.078125 
Q 49.515625 55.5625 49.515625 50.984375 
Q 49.515625 47.515625 48.265625 44.390625 
Q 47.015625 41.265625 44.9375 38.421875 
Q 42.875 35.59375 40.140625 32.953125 
Q 37.40625 30.328125 34.421875 27.8125 
Q 31.453125 25.296875 28.421875 22.828125 
Q 25.390625 20.359375 22.71875 17.859375 
Q 20.0625 15.375 17.96875 12.8125 
Q 15.875 10.25 14.703125 7.46875 
L 50.59375 7.46875 
L 50.59375 0 
z
" id="LiberationSans-32"/>
     </defs>
     <g style="fill:#262626;" transform="translate(57.3025 360.50484375)rotate(-90.0)scale(0.18 -0.18)">
      <use xlink:href="#LiberationSans-78"/>
      <use x="50.0" xlink:href="#LiberationSans-32"/>
     </g>
    </g>
   </g>
   <g id="PathCollection_1">
    <defs>
     <path d="M 0 5 
C 1.326016 5 2.597899 4.473168 3.535534 3.535534 
C 4.473168 2.597899 5 1.326016 5 0 
C 5 -1.326016 4.473168 -2.597899 3.535534 -3.535534 
C 2.597899 -4.473168 1.326016 -5 0 -5 
C -1.326016 -5 -2.597899 -4.473168 -3.535534 -3.535534 
C -4.473168 -2.597899 -5 -1.326016 -5 0 
C -5 1.326016 -4.473168 2.597899 -3.535534 3.535534 
C -2.597899 4.473168 -1.326016 5 0 5 
z
" id="m995aa4367e" style="stroke:#000000;stroke-width:0.3;"/>
    </defs>
    <g clip-path="url(#p40018bc733)">
     <use style="fill:#ffffff;stroke:#000000;stroke-width:0.3;" x="369.428311334" xlink:href="#m995aa4367e" y="436.907120056"/>
     <use style="fill:#ffffff;stroke:#000000;stroke-width:0.3;" x="421.015029623" xlink:href="#m995aa4367e" y="312.561837827"/>
     <use style="fill:#ffffff;stroke:#000000;stroke-width:0.3;" x="495.788164925" xlink:href="#m995aa4367e" y="365.569152724"/>
    </g>
   </g>
   <g id="PathCollection_2">
    <defs>
     <path d="M 0 2.236068 
C 0.593012 2.236068 1.161816 2.000462 1.581139 1.581139 
C 2.000462 1.161816 2.236068 0.593012 2.236068 0 
C 2.236068 -0.593012 2.000462 -1.161816 1.581139 -1.581139 
C 1.161816 -2.000462 0.593012 -2.236068 0 -2.236068 
C -0.593012 -2.236068 -1.161816 -2.000462 -1.581139 -1.581139 
C -2.000462 -1.161816 -2.236068 -0.593012 -2.236068 0 
C -2.236068 0.593012 -2.000462 1.161816 -1.581139 1.581139 
C -1.161816 2.000462 -0.593012 2.236068 0 2.236068 
z
" id="mdb52c810dd" style="stroke:#008000;stroke-opacity:0.6;stroke-width:0.3;"/>
    </defs>
    <g clip-path="url(#p40018bc733)">
     <use style="fill:#008000;fill-opacity:0.6;stroke:#008000;stroke-opacity:0.6;stroke-width:0.3;" x="532.932747722" xlink:href="#mdb52c810dd" y="202.210480903"/>
     <use style="fill:#008000;fill-opacity:0.6;stroke:#008000;stroke-opacity:0.6;stroke-width:0.3;" x="466.734510865" xlink:href="#mdb52c810dd" y="158.711845292"/>
     <use style="fill:#008000;fill-opacity:0.6;stroke:#008000;stroke-opacity:0.6;stroke-width:0.3;" x="421.015029623" xlink:href="#mdb52c810dd" y="312.561837827"/>
     <use style="fill:#008000;fill-opacity:0.6;stroke:#008000;stroke-opacity:0.6;stroke-width:0.3;" x="596.642364351" xlink:href="#mdb52c810dd" y="247.713914707"/>
     <use style="fill:#008000;fill-opacity:0.6;stroke:#008000;stroke-opacity:0.6;stroke-width:0.3;" x="517.57842434" xlink:href="#mdb52c810dd" y="181.022654573"/>
     <use style="fill:#008000;fill-opacity:0.6;stroke:#008000;stroke-opacity:0.6;stroke-width:0.3;" x="544.611978203" xlink:href="#mdb52c810dd" y="201.268374757"/>
     <use style="fill:#008000;fill-opacity:0.6;stroke:#008000;stroke-opacity:0.6;stroke-width:0.3;" x="535.033927012" xlink:href="#mdb52c810dd" y="145.79261053"/>
     <use style="fill:#008000;fill-opacity:0.6;stroke:#008000;stroke-opacity:0.6;stroke-width:0.3;" x="584.698128101" xlink:href="#mdb52c810dd" y="250.253601172"/>
     <use style="fill:#008000;fill-opacity:0.6;stroke:#008000;stroke-opacity:0.6;stroke-width:0.3;" x="466.56140797" xlink:href="#mdb52c810dd" y="217.180761342"/>
     <use style="fill:#008000;fill-opacity:0.6;stroke:#008000;stroke-opacity:0.6;stroke-width:0.3;" x="542.767692545" xlink:href="#mdb52c810dd" y="190.013027102"/>
     <use style="fill:#008000;fill-opacity:0.6;stroke:#008000;stroke-opacity:0.6;stroke-width:0.3;" x="531.153306511" xlink:href="#mdb52c810dd" y="222.997347825"/>
     <use style="fill:#008000;fill-opacity:0.6;stroke:#008000;stroke-opacity:0.6;stroke-width:0.3;" x="498.515269825" xlink:href="#mdb52c810dd" y="216.662635837"/>
     <use style="fill:#008000;fill-opacity:0.6;stroke:#008000;stroke-opacity:0.6;stroke-width:0.3;" x="534.774853874" xlink:href="#mdb52c810dd" y="193.748485498"/>
     <use style="fill:#008000;fill-opacity:0.6;stroke:#008000;stroke-opacity:0.6;stroke-width:0.3;" x="475.157689825" xlink:href="#mdb52c810dd" y="141.292421935"/>
     <use style="fill:#008000;fill-opacity:0.6;stroke:#008000;stroke-opacity:0.6;stroke-width:0.3;" x="510.593701401" xlink:href="#mdb52c810dd" y="297.794847101"/>
     <use style="fill:#008000;fill-opacity:0.6;stroke:#008000;stroke-opacity:0.6;stroke-width:0.3;" x="541.814970648" xlink:href="#mdb52c810dd" y="212.43359586"/>
     <use style="fill:#008000;fill-opacity:0.6;stroke:#008000;stroke-opacity:0.6;stroke-width:0.3;" x="547.978833242" xlink:href="#mdb52c810dd" y="167.071921174"/>
     <use style="fill:#008000;fill-opacity:0.6;stroke:#008000;stroke-opacity:0.6;stroke-width:0.3;" x="497.46498372" xlink:href="#mdb52c810dd" y="192.105701074"/>
     <use style="fill:#008000;fill-opacity:0.6;stroke:#008000;stroke-opacity:0.6;stroke-width:0.3;" x="409.764865619" xlink:href="#mdb52c810dd" y="200.272726987"/>
     <use style="fill:#008000;fill-opacity:0.6;stroke:#008000;stroke-opacity:0.6;stroke-width:0.3;" x="511.092601606" xlink:href="#mdb52c810dd" y="194.016788965"/>
     <use style="fill:#008000;fill-opacity:0.6;stroke:#008000;stroke-opacity:0.6;stroke-width:0.3;" x="551.363508624" xlink:href="#mdb52c810dd" y="196.963102381"/>
     <use style="fill:#008000;fill-opacity:0.6;stroke:#008000;stroke-opacity:0.6;stroke-width:0.3;" x="495.984804659" xlink:href="#mdb52c810dd" y="266.084834813"/>
     <use style="fill:#008000;fill-opacity:0.6;stroke:#008000;stroke-opacity:0.6;stroke-width:0.3;" x="576.82858565" xlink:href="#mdb52c810dd" y="133.68222856"/>
     <use style="fill:#008000;fill-opacity:0.6;stroke:#008000;stroke-opacity:0.6;stroke-width:0.3;" x="500.295537248" xlink:href="#mdb52c810dd" y="256.294135009"/>
     <use style="fill:#008000;fill-opacity:0.6;stroke:#008000;stroke-opacity:0.6;stroke-width:0.3;" x="519.642115328" xlink:href="#mdb52c810dd" y="260.527445602"/>
     <use style="fill:#008000;fill-opacity:0.6;stroke:#008000;stroke-opacity:0.6;stroke-width:0.3;" x="535.764974088" xlink:href="#mdb52c810dd" y="224.858511556"/>
     <use style="fill:#008000;fill-opacity:0.6;stroke:#008000;stroke-opacity:0.6;stroke-width:0.3;" x="433.250864026" xlink:href="#mdb52c810dd" y="133.814066781"/>
     <use style="fill:#008000;fill-opacity:0.6;stroke:#008000;stroke-opacity:0.6;stroke-width:0.3;" x="541.482646987" xlink:href="#mdb52c810dd" y="194.262375233"/>
     <use style="fill:#008000;fill-opacity:0.6;stroke:#008000;stroke-opacity:0.6;stroke-width:0.3;" x="484.529791502" xlink:href="#mdb52c810dd" y="85.2644689753"/>
     <use style="fill:#008000;fill-opacity:0.6;stroke:#008000;stroke-opacity:0.6;stroke-width:0.3;" x="522.409737866" xlink:href="#mdb52c810dd" y="218.853931065"/>
     <use style="fill:#008000;fill-opacity:0.6;stroke:#008000;stroke-opacity:0.6;stroke-width:0.3;" x="636.680920734" xlink:href="#mdb52c810dd" y="133.157996879"/>
     <use style="fill:#008000;fill-opacity:0.6;stroke:#008000;stroke-opacity:0.6;stroke-width:0.3;" x="498.134152431" xlink:href="#mdb52c810dd" y="242.031875832"/>
     <use style="fill:#008000;fill-opacity:0.6;stroke:#008000;stroke-opacity:0.6;stroke-width:0.3;" x="495.337155133" xlink:href="#mdb52c810dd" y="246.679776725"/>
     <use style="fill:#008000;fill-opacity:0.6;stroke:#008000;stroke-opacity:0.6;stroke-width:0.3;" x="504.397577701" xlink:href="#mdb52c810dd" y="243.130815648"/>
     <use style="fill:#008000;fill-opacity:0.6;stroke:#008000;stroke-opacity:0.6;stroke-width:0.3;" x="475.397731089" xlink:href="#mdb52c810dd" y="85.5833423663"/>
     <use style="fill:#008000;fill-opacity:0.6;stroke:#008000;stroke-opacity:0.6;stroke-width:0.3;" x="568.382085524" xlink:href="#mdb52c810dd" y="330.091457548"/>
     <use style="fill:#008000;fill-opacity:0.6;stroke:#008000;stroke-opacity:0.6;stroke-width:0.3;" x="495.788164925" xlink:href="#mdb52c810dd" y="365.569152724"/>
     <use style="fill:#008000;fill-opacity:0.6;stroke:#008000;stroke-opacity:0.6;stroke-width:0.3;" x="490.04492" xlink:href="#mdb52c810dd" y="251.651467592"/>
     <use style="fill:#008000;fill-opacity:0.6;stroke:#008000;stroke-opacity:0.6;stroke-width:0.3;" x="534.452124129" xlink:href="#mdb52c810dd" y="198.475278272"/>
     <use style="fill:#008000;fill-opacity:0.6;stroke:#008000;stroke-opacity:0.6;stroke-width:0.3;" x="531.54855297" xlink:href="#mdb52c810dd" y="339.205767272"/>
     <use style="fill:#008000;fill-opacity:0.6;stroke:#008000;stroke-opacity:0.6;stroke-width:0.3;" x="505.52396657" xlink:href="#mdb52c810dd" y="257.726217487"/>
     <use style="fill:#008000;fill-opacity:0.6;stroke:#008000;stroke-opacity:0.6;stroke-width:0.3;" x="541.407711396" xlink:href="#mdb52c810dd" y="158.098494043"/>
     <use style="fill:#008000;fill-opacity:0.6;stroke:#008000;stroke-opacity:0.6;stroke-width:0.3;" x="435.198070802" xlink:href="#mdb52c810dd" y="284.646749803"/>
     <use style="fill:#008000;fill-opacity:0.6;stroke:#008000;stroke-opacity:0.6;stroke-width:0.3;" x="474.90521099" xlink:href="#mdb52c810dd" y="121.961522126"/>
     <use style="fill:#008000;fill-opacity:0.6;stroke:#008000;stroke-opacity:0.6;stroke-width:0.3;" x="634.961505679" xlink:href="#mdb52c810dd" y="255.081239779"/>
     <use style="fill:#008000;fill-opacity:0.6;stroke:#008000;stroke-opacity:0.6;stroke-width:0.3;" x="563.924224978" xlink:href="#mdb52c810dd" y="284.05311816"/>
     <use style="fill:#008000;fill-opacity:0.6;stroke:#008000;stroke-opacity:0.6;stroke-width:0.3;" x="631.650702407" xlink:href="#mdb52c810dd" y="253.411900006"/>
     <use style="fill:#008000;fill-opacity:0.6;stroke:#008000;stroke-opacity:0.6;stroke-width:0.3;" x="616.011969755" xlink:href="#mdb52c810dd" y="273.310339992"/>
     <use style="fill:#008000;fill-opacity:0.6;stroke:#008000;stroke-opacity:0.6;stroke-width:0.3;" x="513.740022197" xlink:href="#mdb52c810dd" y="258.314637703"/>
     <use style="fill:#008000;fill-opacity:0.6;stroke:#008000;stroke-opacity:0.6;stroke-width:0.3;" x="635.809501716" xlink:href="#mdb52c810dd" y="272.78049062"/>
    </g>
   </g>
   <g id="PathCollection_3">
    <defs>
     <path d="M 0 2.236068 
C 0.593012 2.236068 1.161816 2.000462 1.581139 1.581139 
C 2.000462 1.161816 2.236068 0.593012 2.236068 0 
C 2.236068 -0.593012 2.000462 -1.161816 1.581139 -1.581139 
C 1.161816 -2.000462 0.593012 -2.236068 0 -2.236068 
C -0.593012 -2.236068 -1.161816 -2.000462 -1.581139 -1.581139 
C -2.000462 -1.161816 -2.236068 -0.593012 -2.236068 0 
C -2.236068 0.593012 -2.000462 1.161816 -1.581139 1.581139 
C -1.161816 2.000462 -0.593012 2.236068 0 2.236068 
z
" id="m89c0055029" style="stroke:#ff0000;stroke-opacity:0.6;stroke-width:0.3;"/>
    </defs>
    <g clip-path="url(#p40018bc733)">
     <use style="fill:#ff0000;fill-opacity:0.6;stroke:#ff0000;stroke-opacity:0.6;stroke-width:0.3;" x="304.6067415" xlink:href="#m89c0055029" y="622.347911673"/>
     <use style="fill:#ff0000;fill-opacity:0.6;stroke:#ff0000;stroke-opacity:0.6;stroke-width:0.3;" x="262.097149084" xlink:href="#m89c0055029" y="504.132379602"/>
     <use style="fill:#ff0000;fill-opacity:0.6;stroke:#ff0000;stroke-opacity:0.6;stroke-width:0.3;" x="280.498509295" xlink:href="#m89c0055029" y="496.321271999"/>
     <use style="fill:#ff0000;fill-opacity:0.6;stroke:#ff0000;stroke-opacity:0.6;stroke-width:0.3;" x="210.991365212" xlink:href="#m89c0055029" y="621.890369057"/>
     <use style="fill:#ff0000;fill-opacity:0.6;stroke:#ff0000;stroke-opacity:0.6;stroke-width:0.3;" x="199.644576502" xlink:href="#m89c0055029" y="510.671321662"/>
     <use style="fill:#ff0000;fill-opacity:0.6;stroke:#ff0000;stroke-opacity:0.6;stroke-width:0.3;" x="208.113381632" xlink:href="#m89c0055029" y="481.954790714"/>
     <use style="fill:#ff0000;fill-opacity:0.6;stroke:#ff0000;stroke-opacity:0.6;stroke-width:0.3;" x="111.134394883" xlink:href="#m89c0055029" y="639.710873749"/>
     <use style="fill:#ff0000;fill-opacity:0.6;stroke:#ff0000;stroke-opacity:0.6;stroke-width:0.3;" x="134.121406796" xlink:href="#m89c0055029" y="390.342760832"/>
     <use style="fill:#ff0000;fill-opacity:0.6;stroke:#ff0000;stroke-opacity:0.6;stroke-width:0.3;" x="233.948559552" xlink:href="#m89c0055029" y="527.881768043"/>
     <use style="fill:#ff0000;fill-opacity:0.6;stroke:#ff0000;stroke-opacity:0.6;stroke-width:0.3;" x="205.603724219" xlink:href="#m89c0055029" y="511.935503684"/>
     <use style="fill:#ff0000;fill-opacity:0.6;stroke:#ff0000;stroke-opacity:0.6;stroke-width:0.3;" x="169.880501359" xlink:href="#m89c0055029" y="487.927612143"/>
     <use style="fill:#ff0000;fill-opacity:0.6;stroke:#ff0000;stroke-opacity:0.6;stroke-width:0.3;" x="282.524225912" xlink:href="#m89c0055029" y="442.847507506"/>
     <use style="fill:#ff0000;fill-opacity:0.6;stroke:#ff0000;stroke-opacity:0.6;stroke-width:0.3;" x="137.364599627" xlink:href="#m89c0055029" y="515.283759158"/>
     <use style="fill:#ff0000;fill-opacity:0.6;stroke:#ff0000;stroke-opacity:0.6;stroke-width:0.3;" x="149.832298062" xlink:href="#m89c0055029" y="458.900493666"/>
     <use style="fill:#ff0000;fill-opacity:0.6;stroke:#ff0000;stroke-opacity:0.6;stroke-width:0.3;" x="166.898435676" xlink:href="#m89c0055029" y="478.866822324"/>
     <use style="fill:#ff0000;fill-opacity:0.6;stroke:#ff0000;stroke-opacity:0.6;stroke-width:0.3;" x="243.333494925" xlink:href="#m89c0055029" y="479.100948595"/>
     <use style="fill:#ff0000;fill-opacity:0.6;stroke:#ff0000;stroke-opacity:0.6;stroke-width:0.3;" x="192.730604525" xlink:href="#m89c0055029" y="452.268757095"/>
     <use style="fill:#ff0000;fill-opacity:0.6;stroke:#ff0000;stroke-opacity:0.6;stroke-width:0.3;" x="250.555857754" xlink:href="#m89c0055029" y="449.782273222"/>
     <use style="fill:#ff0000;fill-opacity:0.6;stroke:#ff0000;stroke-opacity:0.6;stroke-width:0.3;" x="219.469406585" xlink:href="#m89c0055029" y="492.016645236"/>
     <use style="fill:#ff0000;fill-opacity:0.6;stroke:#ff0000;stroke-opacity:0.6;stroke-width:0.3;" x="251.517441452" xlink:href="#m89c0055029" y="458.598978166"/>
     <use style="fill:#ff0000;fill-opacity:0.6;stroke:#ff0000;stroke-opacity:0.6;stroke-width:0.3;" x="265.860334892" xlink:href="#m89c0055029" y="523.446263234"/>
     <use style="fill:#ff0000;fill-opacity:0.6;stroke:#ff0000;stroke-opacity:0.6;stroke-width:0.3;" x="252.562578245" xlink:href="#m89c0055029" y="465.206789953"/>
     <use style="fill:#ff0000;fill-opacity:0.6;stroke:#ff0000;stroke-opacity:0.6;stroke-width:0.3;" x="200.289426846" xlink:href="#m89c0055029" y="482.150991024"/>
     <use style="fill:#ff0000;fill-opacity:0.6;stroke:#ff0000;stroke-opacity:0.6;stroke-width:0.3;" x="199.146561911" xlink:href="#m89c0055029" y="482.451186619"/>
     <use style="fill:#ff0000;fill-opacity:0.6;stroke:#ff0000;stroke-opacity:0.6;stroke-width:0.3;" x="238.789817256" xlink:href="#m89c0055029" y="441.35256548"/>
     <use style="fill:#ff0000;fill-opacity:0.6;stroke:#ff0000;stroke-opacity:0.6;stroke-width:0.3;" x="224.613806135" xlink:href="#m89c0055029" y="617.660366242"/>
     <use style="fill:#ff0000;fill-opacity:0.6;stroke:#ff0000;stroke-opacity:0.6;stroke-width:0.3;" x="176.311390358" xlink:href="#m89c0055029" y="450.773770186"/>
     <use style="fill:#ff0000;fill-opacity:0.6;stroke:#ff0000;stroke-opacity:0.6;stroke-width:0.3;" x="178.079861922" xlink:href="#m89c0055029" y="393.229921238"/>
     <use style="fill:#ff0000;fill-opacity:0.6;stroke:#ff0000;stroke-opacity:0.6;stroke-width:0.3;" x="127.291048974" xlink:href="#m89c0055029" y="575.586823107"/>
     <use style="fill:#ff0000;fill-opacity:0.6;stroke:#ff0000;stroke-opacity:0.6;stroke-width:0.3;" x="243.404353351" xlink:href="#m89c0055029" y="462.30562579"/>
     <use style="fill:#ff0000;fill-opacity:0.6;stroke:#ff0000;stroke-opacity:0.6;stroke-width:0.3;" x="297.676400299" xlink:href="#m89c0055029" y="542.690102599"/>
     <use style="fill:#ff0000;fill-opacity:0.6;stroke:#ff0000;stroke-opacity:0.6;stroke-width:0.3;" x="321.719883136" xlink:href="#m89c0055029" y="508.081843369"/>
     <use style="fill:#ff0000;fill-opacity:0.6;stroke:#ff0000;stroke-opacity:0.6;stroke-width:0.3;" x="262.898593561" xlink:href="#m89c0055029" y="473.992412965"/>
     <use style="fill:#ff0000;fill-opacity:0.6;stroke:#ff0000;stroke-opacity:0.6;stroke-width:0.3;" x="267.232182497" xlink:href="#m89c0055029" y="484.29918334"/>
     <use style="fill:#ff0000;fill-opacity:0.6;stroke:#ff0000;stroke-opacity:0.6;stroke-width:0.3;" x="343.226145315" xlink:href="#m89c0055029" y="479.507550843"/>
     <use style="fill:#ff0000;fill-opacity:0.6;stroke:#ff0000;stroke-opacity:0.6;stroke-width:0.3;" x="306.51160008" xlink:href="#m89c0055029" y="416.674708713"/>
     <use style="fill:#ff0000;fill-opacity:0.6;stroke:#ff0000;stroke-opacity:0.6;stroke-width:0.3;" x="201.136085341" xlink:href="#m89c0055029" y="480.262935357"/>
     <use style="fill:#ff0000;fill-opacity:0.6;stroke:#ff0000;stroke-opacity:0.6;stroke-width:0.3;" x="261.831839287" xlink:href="#m89c0055029" y="527.185813734"/>
     <use style="fill:#ff0000;fill-opacity:0.6;stroke:#ff0000;stroke-opacity:0.6;stroke-width:0.3;" x="220.947153695" xlink:href="#m89c0055029" y="502.433620148"/>
     <use style="fill:#ff0000;fill-opacity:0.6;stroke:#ff0000;stroke-opacity:0.6;stroke-width:0.3;" x="212.185884173" xlink:href="#m89c0055029" y="595.277197992"/>
     <use style="fill:#ff0000;fill-opacity:0.6;stroke:#ff0000;stroke-opacity:0.6;stroke-width:0.3;" x="114.529033151" xlink:href="#m89c0055029" y="500.985329414"/>
     <use style="fill:#ff0000;fill-opacity:0.6;stroke:#ff0000;stroke-opacity:0.6;stroke-width:0.3;" x="369.428311334" xlink:href="#m89c0055029" y="436.907120056"/>
     <use style="fill:#ff0000;fill-opacity:0.6;stroke:#ff0000;stroke-opacity:0.6;stroke-width:0.3;" x="300.880778307" xlink:href="#m89c0055029" y="453.453315917"/>
     <use style="fill:#ff0000;fill-opacity:0.6;stroke:#ff0000;stroke-opacity:0.6;stroke-width:0.3;" x="135.165619164" xlink:href="#m89c0055029" y="466.554255272"/>
     <use style="fill:#ff0000;fill-opacity:0.6;stroke:#ff0000;stroke-opacity:0.6;stroke-width:0.3;" x="213.209394395" xlink:href="#m89c0055029" y="408.502255793"/>
     <use style="fill:#ff0000;fill-opacity:0.6;stroke:#ff0000;stroke-opacity:0.6;stroke-width:0.3;" x="216.393096448" xlink:href="#m89c0055029" y="514.199018956"/>
     <use style="fill:#ff0000;fill-opacity:0.6;stroke:#ff0000;stroke-opacity:0.6;stroke-width:0.3;" x="179.553864371" xlink:href="#m89c0055029" y="531.361442756"/>
     <use style="fill:#ff0000;fill-opacity:0.6;stroke:#ff0000;stroke-opacity:0.6;stroke-width:0.3;" x="328.143572508" xlink:href="#m89c0055029" y="577.321784042"/>
     <use style="fill:#ff0000;fill-opacity:0.6;stroke:#ff0000;stroke-opacity:0.6;stroke-width:0.3;" x="349.25490778" xlink:href="#m89c0055029" y="466.578730582"/>
     <use style="fill:#ff0000;fill-opacity:0.6;stroke:#ff0000;stroke-opacity:0.6;stroke-width:0.3;" x="217.885008036" xlink:href="#m89c0055029" y="508.981339166"/>
    </g>
   </g>
   <g id="line2d_31">
    <path clip-path="url(#p40018bc733)" d="M 90 158.485061 
L 101.387755 166.553463 
L 112.77551 174.621865 
L 124.163265 182.690267 
L 135.55102 190.758669 
L 146.938776 198.827071 
L 158.326531 206.895474 
L 169.714286 214.963876 
L 181.102041 223.032278 
L 192.489796 231.10068 
L 203.877551 239.169082 
L 215.265306 247.237484 
L 226.653061 255.305886 
L 238.040816 263.374288 
L 249.428571 271.44269 
L 260.816327 279.511093 
L 272.204082 287.579495 
L 283.591837 295.647897 
L 294.979592 303.716299 
L 306.367347 311.784701 
L 317.755102 319.853103 
L 329.142857 327.921505 
L 340.530612 335.989907 
L 351.918367 344.058309 
L 363.306122 352.126712 
L 374.693878 360.195114 
L 386.081633 368.263516 
L 397.469388 376.331918 
L 408.857143 384.40032 
L 420.244898 392.468722 
L 431.632653 400.537124 
L 443.020408 408.605526 
L 454.408163 416.673928 
L 465.795918 424.742331 
L 477.183673 432.810733 
L 488.571429 440.879135 
L 499.959184 448.947537 
L 511.346939 457.015939 
L 522.734694 465.084341 
L 534.122449 473.152743 
L 545.510204 481.221145 
L 556.897959 489.289548 
L 568.285714 497.35795 
L 579.673469 505.426352 
L 591.061224 513.494754 
L 602.44898 521.563156 
L 613.836735 529.631558 
L 625.22449 537.69996 
L 636.612245 545.768362 
L 648 553.836764 
" style="fill:none;opacity:0.6;stroke:#0000ff;stroke-linecap:round;stroke-width:1.75;"/>
   </g>
   <g id="line2d_32">
    <path clip-path="url(#p40018bc733)" d="M 90 78.052114 
L 101.387755 86.120516 
L 112.77551 94.188918 
L 124.163265 102.25732 
L 135.55102 110.325723 
L 146.938776 118.394125 
L 158.326531 126.462527 
L 169.714286 134.530929 
L 181.102041 142.599331 
L 192.489796 150.667733 
L 203.877551 158.736135 
L 215.265306 166.804537 
L 226.653061 174.872939 
L 238.040816 182.941342 
L 249.428571 191.009744 
L 260.816327 199.078146 
L 272.204082 207.146548 
L 283.591837 215.21495 
L 294.979592 223.283352 
L 306.367347 231.351754 
L 317.755102 239.420156 
L 329.142857 247.488559 
L 340.530612 255.556961 
L 351.918367 263.625363 
L 363.306122 271.693765 
L 374.693878 279.762167 
L 386.081633 287.830569 
L 397.469388 295.898971 
L 408.857143 303.967373 
L 420.244898 312.035775 
L 431.632653 320.104178 
L 443.020408 328.17258 
L 454.408163 336.240982 
L 465.795918 344.309384 
L 477.183673 352.377786 
L 488.571429 360.446188 
L 499.959184 368.51459 
L 511.346939 376.582992 
L 522.734694 384.651394 
L 534.122449 392.719797 
L 545.510204 400.788199 
L 556.897959 408.856601 
L 568.285714 416.925003 
L 579.673469 424.993405 
L 591.061224 433.061807 
L 602.44898 441.130209 
L 613.836735 449.198611 
L 625.22449 457.267013 
L 636.612245 465.335416 
L 648 473.403818 
" style="fill:none;opacity:0.3;stroke:#0000ff;stroke-dasharray:6.000000,6.000000;stroke-dashoffset:0.0;stroke-width:1.75;"/>
   </g>
   <g id="line2d_33">
    <path clip-path="url(#p40018bc733)" d="M 90 238.918008 
L 101.387755 246.98641 
L 112.77551 255.054812 
L 124.163265 263.123214 
L 135.55102 271.191616 
L 146.938776 279.260018 
L 158.326531 287.32842 
L 169.714286 295.396822 
L 181.102041 303.465225 
L 192.489796 311.533627 
L 203.877551 319.602029 
L 215.265306 327.670431 
L 226.653061 335.738833 
L 238.040816 343.807235 
L 249.428571 351.875637 
L 260.816327 359.944039 
L 272.204082 368.012441 
L 283.591837 376.080844 
L 294.979592 384.149246 
L 306.367347 392.217648 
L 317.755102 400.28605 
L 329.142857 408.354452 
L 340.530612 416.422854 
L 351.918367 424.491256 
L 363.306122 432.559658 
L 374.693878 440.62806 
L 386.081633 448.696463 
L 397.469388 456.764865 
L 408.857143 464.833267 
L 420.244898 472.901669 
L 431.632653 480.970071 
L 443.020408 489.038473 
L 454.408163 497.106875 
L 465.795918 505.175277 
L 477.183673 513.243679 
L 488.571429 521.312082 
L 499.959184 529.380484 
L 511.346939 537.448886 
L 522.734694 545.517288 
L 534.122449 553.58569 
L 545.510204 561.654092 
L 556.897959 569.722494 
L 568.285714 577.790896 
L 579.673469 585.859298 
L 591.061224 593.927701 
L 602.44898 601.996103 
L 613.836735 610.064505 
L 625.22449 618.132907 
L 636.612245 626.201309 
L 648 634.269711 
" style="fill:none;opacity:0.3;stroke:#0000ff;stroke-dasharray:6.000000,6.000000;stroke-dashoffset:0.0;stroke-width:1.75;"/>
   </g>
   <g id="patch_3">
    <path d="M 90 72 
L 648 72 
" style="fill:none;"/>
   </g>
   <g id="patch_4">
    <path d="M 648 630 
L 648 72 
" style="fill:none;"/>
   </g>
   <g id="patch_5">
    <path d="M 90 630 
L 648 630 
" style="fill:none;"/>
   </g>
   <g id="patch_6">
    <path d="M 90 630 
L 90 72 
" style="fill:none;"/>
   </g>
  </g>
 </g>
 <defs>
  <clipPath id="p40018bc733">
   <rect height="558.0" width="558.0" x="90.0" y="72.0"/>
  </clipPath>
 </defs>
</svg>
